<?xml version="1.0" standalone="no"?>
<!DOCTYPE svg PUBLIC "-//W3C//DTD SVG 1.1//EN" "http://www.w3.org/Graphics/SVG/1.1/DTD/svg11.dtd" >
<svg xmlns="http://www.w3.org/2000/svg">
<metadata>
This is a custom SVG webfont generated by Font Squirrel.
Copyright   : Copyright c 2006 Parachute wwwparachutegr  All rights reserved
Designer    : Panos Vassiliou
Foundry     : Parachute Worldwide
Foundry URL : httpwwwparachutegr
</metadata>
<defs>
<font id="PFCentroSlabProBlack" horiz-adv-x="1290" >
<font-face units-per-em="2048" ascent="1536" descent="-512" />
<missing-glyph horiz-adv-x="651" />
<glyph unicode=" "  horiz-adv-x="651" />
<glyph unicode="&#x09;" horiz-adv-x="651" />
<glyph unicode="&#xa0;" horiz-adv-x="651" />
<glyph unicode="!" horiz-adv-x="673" d="M150 147q0 76 53 128.5t135 52.5q84 0 136 -51.5t52 -129.5q0 -74 -53 -126t-135 -52q-84 0 -136 52t-52 126zM162 1460h352v-491l-35 -535h-280l-35 535z" />
<glyph unicode="&#x22;" horiz-adv-x="899" d="M115 1417h305l-47 -559h-215zM492 1417h303l-45 -559h-215z" />
<glyph unicode="#" horiz-adv-x="1292" d="M139 408l6 172h187l51 202h-172l2 170h211l92 367h197l-88 -367h178l92 367h195l-86 -367h155l-2 -170h-196l-52 -202h176l-2 -172h-211l-96 -410h-201l97 410h-178l-99 -410h-200l98 410h-154zM535 580h176l51 202h-178z" />
<glyph unicode="$" d="M139 973q0 168 99.5 277.5t273.5 133.5v146h92v-1688h-92v176q-199 16 -352 88v347h207v-146q51 -25 145 -35v328q-172 51 -272.5 137t-100.5 236zM428 1008q0 -74 84 -109v227q-84 -30 -84 -118zM672 -158v1688h94v-146q172 -14 289 -75v-334h-203v139q-37 16 -86 25 v-318q82 -25 141.5 -51.5t122 -70.5t96 -111.5t33.5 -153.5q0 -170 -104.5 -275.5t-288.5 -135.5v-181h-94zM766 287q94 27 94 125q0 78 -94 116v-241z" />
<glyph unicode="%" horiz-adv-x="2007" d="M57 956q0 188 94.5 306t301 118t297 -117.5t90.5 -306t-93.5 -305t-295.5 -116.5q-207 0 -300.5 115.5t-93.5 305.5zM328 956q0 -115 25.5 -173t99.5 -58q119 0 118 231q0 233 -118 234q-125 -1 -125 -234zM559 -39l682 1501h219l-684 -1501h-217zM1157 410 q0 188 94.5 306t301 118t296.5 -117t90 -305q0 -190 -93 -307t-296 -117q-207 0 -300 116t-93 306zM1427 410q0 -115 26 -173.5t99 -58.5q119 0 119 232q0 236 -119 235q-125 1 -125 -235z" />
<glyph unicode="&#x26;" horiz-adv-x="1724" d="M125 387q0 274 309 434q-94 123 -94 271q0 51 17.5 102t55.5 104.5t115.5 87t182.5 33.5q113 0 195.5 -34.5t121.5 -88t55.5 -99.5t16.5 -87q0 -188 -275 -356q125 -152 158 -189q119 -131 133 -143q90 90 119 203h-113v227h533v-227h-121q-47 -203 -219 -381 q152 -123 284 -187l-124 -209q-188 78 -377 234q-190 -119 -447 -119q-231 0 -378.5 110.5t-147.5 313.5zM457 412q0 -92 67.5 -145.5t173.5 -53.5q98 0 195 51l-129 142q-152 176 -176 206q-131 -79 -131 -200zM629 1106q0 -72 65 -164q145 82 146 168q0 47 -31 73.5 t-80 26.5q-47 0 -73.5 -31.5t-26.5 -72.5z" />
<glyph unicode="'" horiz-adv-x="567" d="M127 1417h305l-45 -559h-217z" />
<glyph unicode="(" horiz-adv-x="759" d="M131 563q0 252 103.5 487.5t271.5 407.5l168 -104q-225 -317 -225 -779q0 -297 70.5 -497.5t154.5 -308.5l-164 -111q-172 174 -275.5 408.5t-103.5 496.5z" />
<glyph unicode=")" horiz-adv-x="761" d="M88 1354l170 106q166 -172 269.5 -407.5t103.5 -487.5q0 -262 -103.5 -496.5t-275.5 -408.5l-162 109q223 303 223 809q0 465 -225 776z" />
<glyph unicode="*" horiz-adv-x="917" d="M84 1069q35 133 78 250q43 -27 123 -72t100 -57l-51 246q45 2 133 2q86 0 129 -2q-8 -39 -24.5 -121t-26.5 -123q39 20 115.5 63t109.5 62q31 -72 78 -248q-182 -27 -256 -35l184 -170q-96 -78 -205 -149q-20 41 -106 229q-12 -27 -49 -105.5t-58 -123.5 q-119 76 -208 149q182 170 186 174z" />
<glyph unicode="+" d="M227 520v211h336v346h217v-346h336v-211h-336v-354h-217v354h-336z" />
<glyph unicode="," horiz-adv-x="624" d="M106 -209q117 100 136 225q-133 14 -133 162q0 74 56 127t144 53q100 0 150.5 -65.5t50.5 -159.5q0 -135 -87 -265t-220 -202z" />
<glyph unicode="-" horiz-adv-x="849" d="M131 430v256h588v-256h-588z" />
<glyph unicode="." horiz-adv-x="624" d="M117 170q0 80 57 137.5t137 57.5t137.5 -56.5t57.5 -138.5q0 -80 -57.5 -137.5t-135.5 -57.5q-80 0 -138 57.5t-58 137.5z" />
<glyph unicode="/" horiz-adv-x="823" d="M6 -76l535 1532h272l-534 -1532h-273z" />
<glyph unicode="0" d="M47 682q0 147 32 270t98.5 223.5t186 157t283.5 56.5q162 0 281 -57.5t185.5 -159t96 -222.5t29.5 -266q0 -150 -32.5 -273.5t-100.5 -222t-184.5 -152.5t-274.5 -54q-164 0 -283.5 54t-187 152.5t-98.5 220t-31 273.5zM436 682q0 -209 45 -320.5t166 -111.5 q203 0 203 432q0 92 -7 161.5t-27.5 136.5t-63.5 102.5t-105 35.5q-211 0 -211 -436z" />
<glyph unicode="1" d="M131 1243l379 129h336v-1130h289v-242h-959v242h285v825q-18 -2 -85 -9t-124 -13.5t-84 -8.5z" />
<glyph unicode="2" d="M78 0v217q12 10 39 31q115 90 176 140t159.5 138t148.5 147.5t90 133.5t40 133q0 156 -188 156q-152 0 -338 -105q-8 16 -57.5 118.5t-55.5 113.5q248 164 518 163q238 0 374 -113.5t136 -311.5q0 -98 -46 -197.5t-137 -199t-160.5 -163t-180.5 -153.5v-6q35 0 155.5 -1 t155.5 -1v133h273v-373h-1102z" />
<glyph unicode="3" d="M102 84l84 242q201 -63 349 -64q121 0 188.5 51.5t67.5 139.5q0 182 -275 182q-37 0 -86 -6l-37 176q25 25 171.5 164t164.5 157h-291v-131h-270v377h950l43 -201l-346 -331q176 -27 272.5 -125.5t96.5 -261.5q0 -229 -164 -352.5t-424 -123.5q-109 0 -249.5 25 t-244.5 82z" />
<glyph unicode="4" d="M57 389v209q121 158 570 774h411v-739h201v-244h-201v-147h127v-242h-616v242h115v147h-607zM395 633h271l-2 348h-11z" />
<glyph unicode="5" d="M104 86l89 254q205 -68 348 -68q117 0 186.5 49.5t69.5 143.5t-67.5 140t-176.5 46q-86 0 -199 -45l-178 84l60 682h874v-362h-281v116h-294l-21 -239q68 20 143 20q240 0 384.5 -115.5t144.5 -328.5q0 -229 -164 -356t-422 -127q-310 0 -496 106z" />
<glyph unicode="6" d="M86 610q0 166 35 300t108.5 244t203.5 170t308.5 60t317.5 -45l-49 -254q-123 33 -240 33q-145 0 -219 -91t-86 -218l10 -8q137 74 293 73q180 0 304 -111.5t124 -313.5q0 -223 -148.5 -345t-388.5 -122q-295 0 -434 169.5t-139 458.5zM471 526q0 -270 188 -270 q78 0 124 51t46 139q0 180 -163 181q-76 0 -195 -66v-35z" />
<glyph unicode="7" d="M168 944v426h975v-227l-529 -1143h-368l514 1126h-309v-182h-283z" />
<glyph unicode="8" d="M74 377q0 98 54 199.5t173 175.5q-156 100 -156 262q0 166 143.5 273.5t362.5 107.5q90 0 176 -20.5t162 -62.5t122 -117t46 -171q0 -176 -170 -307q213 -111 213 -330q0 -176 -156.5 -289.5t-410.5 -113.5q-260 0 -409.5 105.5t-149.5 287.5zM455 408q0 -63 48 -106.5 t134 -43.5t133 46t49 106q2 61 -52 107t-196 99q-116 -87 -116 -208zM496 1008q0 -18 5 -34t18 -30t23.5 -23.5t36 -22.5t39 -20.5t48 -22.5t49.5 -21q102 86 102 170q0 55 -42 94t-126 39q-72 0 -112.5 -42t-40.5 -87z" />
<glyph unicode="9" d="M80 920q0 223 151.5 344.5t393.5 121.5q295 0 430 -168.5t135 -459.5q0 -166 -35 -300t-108.5 -244t-203.5 -170t-308.5 -60t-317.5 45l49 254q123 -33 240 -33q145 0 219 91t86 218l-10 8q-137 -74 -293 -73q-180 0 -304 111.5t-124 314.5zM446 922q0 -180 164 -181 q76 0 195 66v35q0 270 -189 270q-78 0 -124 -51t-46 -139z" />
<glyph unicode=":" horiz-adv-x="622" d="M117 170q0 80 57 137.5t137 57.5t137.5 -56.5t57.5 -138.5q0 -80 -57.5 -137.5t-135.5 -57.5q-80 0 -138 57.5t-58 137.5zM117 752q0 78 58 136t136 58q80 0 137.5 -58.5t57.5 -135.5q0 -82 -56.5 -138.5t-136.5 -56.5t-138 56.5t-58 138.5z" />
<glyph unicode=";" horiz-adv-x="622" d="M109 -209q117 100 135 225q-133 14 -133 162q0 74 56 127t142 53q102 0 152.5 -65.5t50.5 -159.5q0 -135 -88 -265t-221 -202zM117 752q0 78 58 136t136 58q80 0 137.5 -58.5t57.5 -135.5q0 -82 -56.5 -138.5t-136.5 -56.5t-138 56.5t-58 138.5z" />
<glyph unicode="&#x3c;" d="M156 526v172l987 473v-245l-690 -312l690 -313v-244z" />
<glyph unicode="=" d="M193 334v203h905v-203h-905zM193 688v207h905v-207h-905z" />
<glyph unicode="&#x3e;" d="M158 57v244l692 313l-692 312v245l987 -473v-172z" />
<glyph unicode="?" horiz-adv-x="1107" d="M94 1016v360q231 86 473 86q229 0 353 -101t124 -271q0 -80 -40.5 -154t-98 -129t-115 -107.5t-98.5 -112t-41 -116.5q0 -25 4 -65q-236 0 -309 -5q-8 39 -8 125q0 76 30.5 143.5t75.5 116t90.5 91.5t76 89t30.5 91q0 59 -43 93t-121 34q-51 0 -123 -15l-2 -153h-258z M340 143q0 72 54.5 124t129.5 52q78 0 132.5 -51t54.5 -125q0 -70 -54.5 -121t-130.5 -51q-78 0 -132 51t-54 121z" />
<glyph unicode="@" horiz-adv-x="1964" d="M174 688q0 332 240.5 551t601.5 219q354 0 557 -189.5t203 -506.5q0 -199 -122 -319.5t-290 -120.5q-98 0 -178 35.5t-103 109.5q-47 -57 -117.5 -87t-131.5 -30q-125 0 -176.5 66.5t-51.5 148.5q0 117 94.5 160t350.5 70v24q0 55 -21.5 77t-89.5 22q-92 0 -207 -29 l-37 158q145 57 305 57q303 0 304 -246v-285q0 -23 20.5 -45t60.5 -22q94 0 143.5 67.5t49.5 171.5q0 244 -144.5 387.5t-418.5 143.5q-295 0 -470 -165t-175 -417q0 -260 155.5 -421.5t440.5 -161.5q141 0 299 49l53 -158q-141 -72 -354 -72q-371 0 -581 211t-210 547z M879 600q0 -82 73 -82q51 0 99 41v127q-10 -2 -28.5 -4t-29 -3t-27 -4t-24.5 -6t-20.5 -7.5t-18.5 -10.5t-12 -13t-9 -16.5t-3 -21.5z" />
<glyph unicode="A" horiz-adv-x="1626" d="M41 0v248h111l430 1165h485l406 -1165h112v-248h-627v248h119l-45 145h-465l-47 -145h125v-248h-604zM649 629h309q-4 14 -145 479h-8q-14 -53 -76 -238.5t-80 -240.5z" />
<glyph unicode="B" horiz-adv-x="1519" d="M88 0v250h152v913h-148v250h836q229 0 347 -102.5t118 -282.5q0 -70 -39 -152.5t-129 -130.5v-4q115 -47 163 -141t48 -190q0 -186 -133.5 -298t-352.5 -112h-862zM635 250h203q88 0 135 49t47 127t-46 129t-136 51h-203v-356zM635 840h182q78 0 123 45t45 118.5 t-42 116.5t-126 43h-182v-323z" />
<glyph unicode="C" horiz-adv-x="1368" d="M102 707q0 115 18.5 214t69 198.5t130 169t214 113.5t308.5 44q199 0 391 -57v-455h-272v207q-49 10 -113 10q-174 0 -251 -112.5t-77 -321.5q0 -244 92.5 -337t298.5 -93q156 0 324 41l57 -271q-207 -80 -477 -80q-207 0 -352.5 58.5t-221 164t-107.5 228.5t-32 279z " />
<glyph unicode="D" horiz-adv-x="1605" d="M90 0v250h154v913h-144v252h734q670 0 669 -704q0 -147 -34.5 -270.5t-110.5 -224.5t-211 -158.5t-320 -57.5h-737zM641 250h145q133 0 215 116.5t82 338.5q0 229 -79.5 343.5t-223.5 114.5h-139v-913z" />
<glyph unicode="E" horiz-adv-x="1460" d="M90 0v252h148v911h-146v250h1272v-485h-270v235h-461v-321l434 16v-260l-434 12v-358h481v252h272v-504h-1296z" />
<glyph unicode="F" horiz-adv-x="1437" d="M90 0v250h150v913h-148v250h1276v-485h-272v235h-461v-348l432 14v-258l-432 13v-334h188v-250h-733z" />
<glyph unicode="G" horiz-adv-x="1509" d="M102 707q0 113 18.5 211t70 198.5t133.5 170t219 114.5t317 45q225 0 418 -57v-443h-272v193q-68 14 -129 14q-356 0 -357 -436q0 -229 74 -332.5t237 -103.5q78 0 150 16v235h-152v228h605v-228h-99v-471q-231 -84 -520 -84q-713 1 -713 730z" />
<glyph unicode="H" horiz-adv-x="1753" d="M90 0v250h152v913h-152v250h674v-250h-129v-319h485v319h-129v250h672v-250h-147v-913h147v-250h-672v250h129v360h-485v-360h129v-250h-674z" />
<glyph unicode="I" horiz-adv-x="972" d="M143 0v250h148v913h-148v252h686v-252h-143v-913h143v-250h-686z" />
<glyph unicode="J" horiz-adv-x="1034" d="M-33 -104q231 94 310 192t79 289v786l-194 2v250h753v-252h-165v-788q0 -313 -175.5 -505t-515.5 -251z" />
<glyph unicode="K" horiz-adv-x="1611" d="M90 0v250h150v915h-150v246h668v-246h-135v-338l385 338h-109v246h633v-246h-131l-357 -303l414 -610h115v-252h-664l-2 252h109l-256 381l-137 -119v-264h125v-250h-658z" />
<glyph unicode="L" horiz-adv-x="1406" d="M90 0v250h152v913h-150v250h692v-250h-147v-913h465v266h272v-516h-1284z" />
<glyph unicode="M" horiz-adv-x="2136" d="M80 0v248h151v915h-151v250h651q186 -414 273 -612q39 -84 65 -150h8q12 27 32.5 76t25.5 59q37 86 142 338t122 289h651v-250h-131v-915h131v-248h-633v248h117v676h-6q-12 -29 -35 -83.5t-31 -74.5q-31 -76 -111.5 -263.5t-109.5 -256.5h-328q-96 201 -256 555 q-8 20 -26.5 61t-26.5 62h-6v-676h129v-248h-647z" />
<glyph unicode="N" horiz-adv-x="1802" d="M86 0v248h143v915h-141v250h563q401 -635 457 -729q43 -63 88 -143h10v622h-137v250h641v-250h-137v-1163h-387l-326 502l-174 274l-90 146q-2 0 -2 -1t-2 -1v-672h139v-248h-645z" />
<glyph unicode="O" horiz-adv-x="1624" d="M102 709q0 328 181.5 531.5t531.5 203.5t528.5 -203t178.5 -530.5t-183.5 -530.5t-523.5 -203q-350 0 -531.5 199t-181.5 533zM520 709q0 -225 68.5 -342t226.5 -117q285 0 285 459q0 461 -285 460q-295 1 -295 -460z" />
<glyph unicode="P" horiz-adv-x="1402" d="M90 0v250h143v913h-143v252h739q266 0 393.5 -120.5t127.5 -327.5q0 -186 -127 -317.5t-363 -131.5h-231v-268h186v-250h-725zM629 760h125q86 0 133 51t47 145q0 207 -191 207h-114v-403z" />
<glyph unicode="Q" horiz-adv-x="1634" d="M102 707q0 328 180.5 531.5t528.5 203.5q350 0 528.5 -203t178.5 -530q0 -207 -73 -368t-214 -251l311 -82q-20 -55 -61 -160.5t-47 -121.5l-627 219q-113 31 -176 51q-262 51 -395.5 237.5t-133.5 473.5zM518 707q0 -225 68.5 -342t224.5 -117q287 0 287 459 q0 213 -63.5 336.5t-223.5 123.5q-293 1 -293 -460z" />
<glyph unicode="R" horiz-adv-x="1531" d="M98 0v252h138v911h-138v252h781q262 0 380.5 -120.5t118.5 -311.5q0 -109 -56 -211t-169 -147l182 -383l166 -23v-213q-117 -41 -258 -41q-104 0 -159.5 43t-100.5 142l-178 407h-180v-305h137v-252h-664zM625 795h139q195 0 194 194q0 88 -49 131t-131 43h-153v-368z " />
<glyph unicode="S" horiz-adv-x="1376" d="M100 989q0 211 151.5 328t438.5 117q297 0 492 -95q0 -59 1 -178t1 -178h-273q0 25 -1 74t-1 71q-80 33 -196 33q-102 0 -150.5 -35.5t-48.5 -93.5q0 -33 18.5 -58.5t70.5 -49t79 -32.5t104 -34l19 -6q125 -39 196.5 -67.5t148.5 -79t111.5 -123t34.5 -172.5 q0 -211 -161.5 -323t-479.5 -112q-319 0 -546 97q0 61 -1.5 186t-1.5 188h269l2 -149q106 -41 254 -41q225 0 225 139q0 84 -106 121q-35 12 -111 37t-105.5 34t-92 31.5t-87 36t-70.5 37t-65.5 43t-48.5 49t-40 58t-20.5 66.5t-9.5 81z" />
<glyph unicode="T" horiz-adv-x="1423" d="M37 924v491h1349v-491h-268v239h-211v-913h166v-250h-725v250h168v913h-213l2 -239h-268z" />
<glyph unicode="U" horiz-adv-x="1638" d="M70 1163v252h624v-252h-121v-651q0 -260 250 -260q242 0 242 260v651h-117v252h621v-252h-121v-633q0 -551 -627 -550q-334 0 -485.5 140t-151.5 410v633h-114z" />
<glyph unicode="V" horiz-adv-x="1595" d="M25 1161v252h639v-252h-121q37 -119 108.5 -343t104.5 -333l49 -163h8l49 165q31 94 100.5 322.5t110.5 351.5h-125v252h621v-252h-109l-411 -1161h-496l-422 1161h-106z" />
<glyph unicode="W" horiz-adv-x="2324" d="M27 1161v254h651v-254h-115l115 -463l86 -362h6l100 358l109 369l-33 98h-117l-2 254h643l3 -254h-134l150 -461l106 -319h7l75 342l105 438h-121v254h641v-254h-119q-12 -55 -165.5 -581.5t-166.5 -579.5h-495l-135 430l-62 199h-6l-61 -201l-134 -428h-493l-328 1161 h-110z" />
<glyph unicode="X" horiz-adv-x="1566" d="M43 0v252h113l354 496l-297 411h-162v256h733v-256h-96l176 -250l180 252h-102v254h561v-254h-112l-355 -459l338 -450h137v-252h-729v252h97l-189 276l-192 -276h102v-252h-557z" />
<glyph unicode="Y" horiz-adv-x="1501" d="M29 1161v254h620v-254h-112l215 -389h8l215 389h-117v254h615v-254h-107l-408 -649v-262h154v-250h-735v250h155v260l-401 651h-102z" />
<glyph unicode="Z" horiz-adv-x="1376" d="M57 0v248l717 917h-397v-241h-271v491h1178v-239l-723 -924h490v276h272v-528h-1266z" />
<glyph unicode="[" horiz-adv-x="727" d="M143 -326v1762h512v-207h-190v-1362h190v-193h-512z" />
<glyph unicode="\" horiz-adv-x="823" d="M6 1456h273l534 -1532h-272z" />
<glyph unicode="]" horiz-adv-x="727" d="M88 -133h193v1362h-193v207h514v-1762h-514v193z" />
<glyph unicode="^" horiz-adv-x="1069" d="M37 688l401 698h170q55 -98 404 -698h-248l-242 436l-237 -436h-248z" />
<glyph unicode="_" horiz-adv-x="1024" d="M0 -137h1026v-182h-1026v182z" />
<glyph unicode="`" horiz-adv-x="1116" d="M344 1372l172 203l346 -361l-112 -129z" />
<glyph unicode="a" horiz-adv-x="1245" d="M63 270q0 119 80 196t283 101l272 25v33q0 70 -35.5 104.5t-123.5 34.5q-166 0 -308 -45l-57 229q193 82 461 82q209 0 317.5 -83t108.5 -277v-424h139q12 -139 17 -209q-131 -61 -312 -62q-84 0 -132 30t-52 108q0 2 -2 2q-131 -139 -332 -140q-92 0 -159.5 29 t-101.5 76t-48.5 94t-14.5 96zM459 317q0 -113 104 -112q70 0 131 57v174l-137 -18q-98 -15 -98 -101z" />
<glyph unicode="b" horiz-adv-x="1353" d="M35 1233v242h512v-517q135 78 276 78q242 0 342.5 -139t100.5 -391q0 -88 -13.5 -162t-50.5 -143.5t-95 -117.5t-154.5 -77t-221.5 -29q-113 0 -273.5 27t-295.5 92v1137h-127zM549 274q80 -33 162 -32q80 0 126 53t46 207q0 162 -44 212t-120 50q-72 0 -170 -53v-437z " />
<glyph unicode="c" horiz-adv-x="1083" d="M78 500q0 102 23.5 189t81 170t170 130t274.5 47q199 0 346 -55v-342h-250v123q-18 4 -61 4q-96 0 -143.5 -69.5t-47.5 -184.5q0 -143 54.5 -201.5t152.5 -58.5q137 0 278 45q8 -33 33 -114t35 -122q-170 -82 -412 -81q-156 0 -264 40.5t-165.5 116.5t-81 163t-23.5 200z " />
<glyph unicode="d" horiz-adv-x="1363" d="M82 481q0 555 453 555q147 0 268 -53v250h-139v242h524v-1233h127v-242h-490v82l-6 2q-63 -51 -150 -77.5t-153 -26.5q-434 -1 -434 501zM467 489q0 -145 44 -194t122 -49q86 0 168 57v418q-84 45 -168 45q-33 0 -57.5 -9t-51 -35t-42 -85.5t-15.5 -147.5z" />
<glyph unicode="e" horiz-adv-x="1171" d="M82 502q0 102 27.5 192t86 169t166 125t252.5 46q113 0 200 -29.5t138.5 -76.5t84 -115t44 -134.5t11.5 -143.5v-84h-625q0 -111 52 -157t171 -46q143 0 305 57l74 -225q-190 -102 -453 -103q-534 1 -534 525zM473 604h272q-4 174 -129 174q-70 0 -105.5 -50t-37.5 -124z " />
<glyph unicode="f" horiz-adv-x="989" d="M68 768v207l149 45v102q0 78 16.5 137.5t58.5 117t130 88t219 30.5q184 0 328 -45l-51 -256q-94 18 -183 18q-145 0 -145 -108v-96h289v-240h-289v-526h151v-242h-651v242h125v526h-147z" />
<glyph unicode="g" horiz-adv-x="1292" d="M68 -199q0 158 129 234q-109 33 -109 153q0 133 168 195q-66 29 -105.5 97.5t-39.5 166.5q0 193 147.5 289t364.5 96q137 0 229 -24h383v-168h-131l-10 -9q47 -70 47 -169q0 -172 -141.5 -263.5t-356.5 -95.5l-121 -2q-100 0 -100 -59q0 -41 63 -41h312q430 0 430 -289 q0 -154 -151.5 -258.5t-506.5 -104.5q-501 0 -501 252zM444 -102q0 -98 179 -99q90 0 147 29t57 72q0 86 -118 86h-199q-29 -12 -47.5 -37.5t-18.5 -50.5zM498 662q0 -121 120 -121q59 0 97.5 31.5t38.5 91.5q0 53 -33 90t-98 37q-61 0 -93 -36t-32 -93z" />
<glyph unicode="h" horiz-adv-x="1411" d="M41 1233v240h512v-555q162 117 324 116q184 0 266 -99t82 -263v-418h131v-227q-131 -49 -264 -50q-147 0 -199.5 63.5t-52.5 170.5v383q0 78 -31 112.5t-94 34.5q-78 0 -162 -61v-680h-387v1233h-125z" />
<glyph unicode="i" horiz-adv-x="798" d="M92 766v244h488v-754h141v-227q-123 -53 -275 -54q-137 0 -194 55.5t-59 172.5v563h-101zM158 1337q0 92 64.5 157t156.5 65q90 0 155.5 -64.5t65.5 -157.5q0 -90 -65.5 -155.5t-155.5 -65.5q-92 0 -156.5 65.5t-64.5 155.5z" />
<glyph unicode="j" horiz-adv-x="757" d="M-57 -254q168 96 211 172t43 250v598h-111v244h500v-838q0 -293 -127 -443.5t-422 -213.5zM164 1337q0 92 64.5 157t156.5 65q90 0 155.5 -64.5t65.5 -157.5q0 -90 -65.5 -155.5t-155.5 -65.5q-92 0 -156.5 65.5t-64.5 155.5z" />
<glyph unicode="k" horiz-adv-x="1347" d="M55 1233v233h518v-776l183 144v174h497v-240h-139l-160 -121l222 -411l139 -25v-207q-104 -35 -258 -35q-35 0 -57.5 2t-53.5 11.5t-54.5 31t-41.5 54.5l-178 364l-99 -74v-118h95v-240h-607v240h123v993h-129z" />
<glyph unicode="l" horiz-adv-x="802" d="M80 1231v242h518v-1231h129v-242h-643v242h127v989h-131z" />
<glyph unicode="m" horiz-adv-x="2027" d="M53 768v242h502v-97l8 -4q160 123 338 123q100 0 160.5 -34.5t97.5 -110.5q74 68 171 106.5t179 38.5q180 0 257 -94t77 -270v-414h125v-227q-131 -49 -260 -50q-150 0 -201 60.5t-51 195.5v383q0 68 -22.5 94.5t-77.5 26.5q-82 0 -158 -57q4 -37 4 -113v-567h-381v625 q0 111 -90 110q-86 0 -164 -57v-678h-387v768h-127z" />
<glyph unicode="n" horiz-adv-x="1425" d="M55 770v240h504v-88q2 0 6 -1t6 -1q164 115 320 114q348 0 348 -362v-418h131v-225q-121 -51 -264 -52q-252 0 -252 240v377q0 80 -29.5 113.5t-95.5 33.5q-78 0 -162 -61v-680h-389v770h-123z" />
<glyph unicode="o" horiz-adv-x="1286" d="M82 506q0 233 143.5 379.5t420 146.5t417.5 -145.5t141 -381t-142 -380.5t-423 -145q-276 0 -416.5 144t-140.5 382zM477 506q0 -127 36 -197.5t130 -70.5q166 0 166 268q0 262 -162 262q-170 0 -170 -262z" />
<glyph unicode="p" horiz-adv-x="1361" d="M51 -193h127v959h-125v242h488v-84l6 -2q63 53 150 79.5t153 26.5q434 0 434 -502q0 -547 -453 -546q-150 0 -268 55v-228h133v-241h-645v241zM565 297q80 -47 168 -47q166 0 166 270q0 143 -44 190.5t-122 47.5q-86 0 -168 -58v-403z" />
<glyph unicode="q" horiz-adv-x="1339" d="M88 465q0 567 574 567q307 0 530 -106v-1116h127v-244h-643v244h131v243q-137 -80 -277 -80q-229 0 -336.5 130.5t-105.5 361.5zM471 506q0 -84 13.5 -139.5t40 -79t51 -31.5t59.5 -8q78 0 170 49v440q-70 25 -139 25q-195 0 -195 -256z" />
<glyph unicode="r" horiz-adv-x="1067" d="M76 0v242h119v526h-111v244h489v-156l11 -4q217 178 387 178q47 0 64.5 -24.5t17.5 -83.5q0 -74 -28 -159t-83 -136l-362 53v-438h122v-242h-626z" />
<glyph unicode="s" horiz-adv-x="1130" d="M72 342h254q0 -70 2 -104q57 -29 174 -29q61 0 104 19.5t43 54.5q0 43 -25.5 59t-86.5 33q-10 2 -17 4q-240 68 -317 117q-129 80 -129 211q0 160 125 242.5t362 82.5q244 0 410 -80q0 -180 2 -270h-256q0 16 -1 49t-1 49q-47 18 -119 19q-55 0 -89 -20.5t-34 -55.5 q0 -23 22.5 -39t44 -24.5t62.5 -18.5q14 -4 64.5 -15.5t76 -18.5t73.5 -22.5t75 -31.5t62.5 -43t54 -57.5t33 -74.5t14.5 -95q0 -303 -525 -303q-279 0 -456 77q0 191 -2 285z" />
<glyph unicode="t" horiz-adv-x="952" d="M27 768v209l168 49l88 260l266 23v-299h285v-242h-285v-348q0 -92 28.5 -124t110.5 -32q61 0 160 19l43 -246q-143 -59 -311 -60q-104 0 -182.5 21.5t-121.5 53.5t-69.5 80t-33.5 91t-7 96v449h-139z" />
<glyph unicode="u" horiz-adv-x="1402" d="M55 766v244h514v-604q0 -72 22.5 -103t86.5 -31q84 0 153 72v424h-100v242h488v-756h127v-227q-145 -49 -273 -50q-109 0 -159 37t-62 111q-158 -152 -340 -152q-164 0 -248 88.5t-84 253.5v451h-125z" />
<glyph unicode="v" horiz-adv-x="1368" d="M51 733v277h402l149 -461l86 -270h8q6 20 43 128.5t41 124.5l78 234h-70v244h529v-244h-82q-14 -45 -155.5 -383t-155.5 -383h-486q-12 37 -132 360.5t-136 372.5h-119z" />
<glyph unicode="w" horiz-adv-x="1949" d="M18 733v277h383l140 -486l73 -272h13l78 252l69 227l-14 35h-119v244h600v-244h-86l107 -285l81 -227h11l73 240l80 274h-96v242h520v-242l-82 -2l-250 -766h-485l-84 231l-63 195h-9l-133 -426h-475l-229 733h-103z" />
<glyph unicode="x" horiz-adv-x="1320" d="M61 0v225h89l266 312l-236 247h-104v226h624v-226h-92l119 -125l117 125h-78v226h487v-226h-67l-291 -288l258 -271h115v-225h-629v225h82l-141 150l-127 -150h77v-225h-469z" />
<glyph unicode="y" horiz-adv-x="1333" d="M37 745v265h387l225 -760h8q135 426 166 516h-96v244h563v-244h-92l-381 -1010q-41 -102 -108.5 -155.5t-194.5 -53.5q-176 0 -330 56l45 256q86 -18 144 -19h13q60 0 87 18q31 19 53 74l41 107h-180q-25 74 -130 371t-120 335h-100z" />
<glyph unicode="z" horiz-adv-x="1163" d="M72 0v203l520 581h-248v-145h-248v371h967v-197l-522 -590h301v156h248v-379h-1018z" />
<glyph unicode="{" horiz-adv-x="770" d="M66 473v197q154 18 153 172v286q0 135 68.5 224.5t212.5 89.5h233v-203h-63q-125 0 -125 -133v-311q0 -184 -160 -215v-7q160 -41 160 -243v-336q0 -63 25.5 -99t97.5 -36h65v-195h-229q-135 0 -210 87t-75 220v332q1 152 -153 170z" />
<glyph unicode="|" horiz-adv-x="755" d="M250 -311v1771h256v-1771h-256z" />
<glyph unicode="}" horiz-adv-x="770" d="M45 -141h64q125 0 124 135v336q0 203 158 243v7q-158 31 -158 215v311q0 133 -127 133h-61v203h231q143 0 213 -89t70 -225v-286q0 -84 38 -122t114 -50v-197q-76 -12 -114 -50t-38 -120v-332q0 -133 -75.5 -220t-211.5 -87h-227v195z" />
<glyph unicode="~" d="M131 537q96 256 291 256q82 0 254 -45.5t244 -45.5l137 99l123 -94q-92 -262 -285 -263q-98 0 -273.5 46.5t-226.5 46.5l-137 -95z" />
<glyph unicode="&#xa1;" horiz-adv-x="673" d="M150 852q0 74 52 126t136 52q82 0 135 -52t53 -126q0 -78 -52 -129t-136 -51q-82 0 -135 52t-53 128zM162 -461l2 492l35 536h280l35 -536v-492h-352z" />
<glyph unicode="&#xa2;" d="M172 500q0 449 395 522v207h238v-195q141 -10 262 -53v-342h-250v123q-18 4 -61 4q-96 0 -143.5 -69.5t-47.5 -184.5q0 -143 54.5 -201.5t152.5 -58.5q137 0 279 45q8 -33 32.5 -114t34.5 -122q-129 -61 -313 -77v-179h-238v185q-395 59 -395 510z" />
<glyph unicode="&#xa3;" d="M102 0l2 238q74 55 103 126.5t37 172.5l4 67h-119v174h133l12 166q35 465 492 465q199 0 401 -82v-348h-258v139q-70 18 -121 19q-82 0 -120.5 -50.5t-46.5 -162.5l-11 -146h273v-174h-287l-6 -86q-14 -199 -98 -280h663v-238h-1053z" />
<glyph unicode="&#xa4;" d="M139 281l133 131q-57 90 -57 213q0 121 57 215l-133 135l154 155l133 -133q102 59 219 60q121 0 221 -62l129 135l156 -155l-135 -133q57 -96 57 -217q0 -113 -59 -215l137 -129l-156 -158l-133 133q-90 -59 -217 -59q-125 0 -219 59l-133 -133zM434 625 q0 -86 60.5 -146.5t148.5 -60.5q86 0 147.5 60.5t61.5 146.5t-60.5 148.5t-148.5 62.5t-148.5 -61.5t-60.5 -149.5z" />
<glyph unicode="&#xa5;" d="M31 1126v246h553v-246h-103q18 -37 84 -194.5t82 -194.5h6q16 37 80 193.5t82 195.5h-104v246h544v-246h-90q-20 -39 -87.5 -182t-86.5 -178h176v-123h-1042v123h168q-16 33 -83 176t-87 184h-92zM125 436v123h1042v-123h-340v-194h142v-242h-660v242h144v190l-2 4h-326z " />
<glyph unicode="&#xa6;" horiz-adv-x="755" d="M250 -311v784h256v-784h-256zM250 743v717h256v-717h-256z" />
<glyph unicode="&#xa7;" horiz-adv-x="1167" d="M139 606q0 166 140 266q-127 88 -127 230q0 172 135 258t350 86q217 0 360 -70v-303h-241v148q-74 18 -127 18q-76 0 -117 -34t-41 -83q0 -12 6 -24.5t18.5 -23.5t24.5 -21.5t33.5 -21.5t35 -19t39 -18.5t36 -15.5t36 -14.5t27.5 -11.5q76 -29 119 -49t94 -57t74.5 -85 t23.5 -114q0 -160 -131 -262q156 -109 156 -252q0 -162 -133 -256t-383 -94q-193 0 -377 65v310h238q0 -23 -1 -68t-1 -67q86 -23 139 -23q94 0 139 33t45 76t-41 75.5t-151 73.5q-78 29 -120 46.5t-104.5 50t-93.5 64.5t-55.5 81t-24.5 106zM426 657q0 -35 21.5 -58.5 t49 -34.5t92 -36.5t113.5 -48.5q57 47 58 113q0 49 -63.5 87t-204.5 93q-66 -47 -66 -115z" />
<glyph unicode="&#xa8;" horiz-adv-x="903" d="M96 1251.5q0 59.5 41 100.5t99 41q61 0 102 -40t41 -102q0 -59 -41 -100t-100.5 -41t-100.5 41t-41 100.5zM528 1251.5q0 59.5 41 100.5t101 41q61 0 102 -40t41 -102q0 -59 -41 -100t-102 -41q-59 0 -100.5 41t-41.5 100.5z" />
<glyph unicode="&#xa9;" horiz-adv-x="1798" d="M90 671.5q0 329.5 236.5 564t568.5 234.5q330 0 565.5 -234.5t235.5 -564t-235.5 -564t-565.5 -234.5q-332 0 -568.5 234.5t-236.5 564zM242 672q0 -266 192.5 -457.5t460.5 -191.5q270 0 460.5 190t190.5 458.5t-190.5 459t-460.5 190.5q-268 0 -460.5 -191.5 t-192.5 -457.5zM438 655q0 96 23.5 179.5t78 158t158 117.5t248.5 43q125 0 260 -39v-293h-172v127q-31 8 -80 8q-242 0 -241 -292q0 -160 66.5 -224.5t203.5 -64.5q111 0 215 24l35 -176q-129 -51 -320 -51q-475 0 -475 483z" />
<glyph unicode="&#xaa;" horiz-adv-x="854" d="M41 733q0 154 174 185q82 14 258 30v15q0 45 -22.5 64.5t-79.5 19.5q-111 0 -213 -31q-41 147 -45 160q139 55 325 55q297 0 297 -240v-264h76l10 -154q-84 -37 -198 -36q-121 0 -134 84q-86 -84 -219 -84q-123 0 -176 61t-53 135zM319 762q0 -68 70 -68q47 0 84 33v109 q-154 -4 -154 -74z" />
<glyph unicode="&#xab;" horiz-adv-x="1112" d="M80 379v78l375 399l153 -104l-217 -334l213 -326l-158 -115zM524 379v78l373 399l156 -104l-217 -334l213 -326l-156 -115z" />
<glyph unicode="&#xac;" d="M227 520v211h889v-565h-219v354h-670z" />
<glyph unicode="&#xad;" horiz-adv-x="849" d="M131 430v256h588v-256h-588z" />
<glyph unicode="&#xae;" horiz-adv-x="1292" d="M92 944q0 233 157 392t396.5 159t395 -158.5t155.5 -392.5q0 -229 -157.5 -389t-393 -160t-394.5 160t-159 389zM207 944q0 -184 123 -310t315 -126q201 0 319.5 125t118.5 311q0 182 -124.5 310t-313 128t-313.5 -128t-125 -310zM375 668v106h59v375h-59v108h327 q111 0 161 -50t50 -130q0 -43 -24.5 -87t-69.5 -64l74 -154q47 0 72 -8v-94q-55 -16 -117 -17q-43 0 -66.5 18.5t-42.5 61.5l-75 164h-62v-123h53v-106h-280zM602 1004h55q80 0 80 75q0 72 -73 72h-62v-147z" />
<glyph unicode="&#xaf;" horiz-adv-x="1228" d="M217 1178v233h801v-233h-801z" />
<glyph unicode="&#xb0;" horiz-adv-x="811" d="M70 1100q0 137 98 234.5t233 97.5q137 0 233.5 -94.5t96.5 -237.5q0 -135 -97 -232.5t-233 -97.5q-141 0 -236 92.5t-95 237.5zM250 1099.5q0 -65.5 42 -108.5t107.5 -43t108.5 42t43 109.5t-41 110.5t-111 43q-66 0 -107.5 -44t-41.5 -109.5z" />
<glyph unicode="&#xb1;" d="M227 0v207h887v-207h-887zM227 584v211h336v297h217v-297h334v-211h-334v-293h-217v293h-336z" />
<glyph unicode="&#xb2;" horiz-adv-x="849" d="M45 1466q168 109 346 109q166 0 254 -67.5t88 -188.5q0 -104 -103.5 -209.5t-236.5 -187.5h178v61h205v-254h-717v168q12 10 66.5 49t77 57.5t69.5 56.5t71 61.5t52.5 56t41 59.5t12.5 51q0 72 -95 72q-100 0 -221 -66z" />
<glyph unicode="&#xb3;" horiz-adv-x="849" d="M39 791l37 92q33 82 35 92q127 -41 247 -41q61 0 95 22.5t34 61.5q0 80 -141 80q-39 0 -88 -6l-27 114q10 8 55.5 46t87.5 74t54 48h-149v-67h-193v258h641q14 -86 35 -148q-8 -6 -98.5 -81.5t-108.5 -92.5q102 -23 159.5 -81t57.5 -148q0 -139 -110.5 -217t-282.5 -78 q-207 0 -340 72z" />
<glyph unicode="&#xb4;" horiz-adv-x="1120" d="M379 1214l346 361l178 -203l-409 -287z" />
<glyph unicode="&#xb5;" horiz-adv-x="1355" d="M35 766v244h514v-604q0 -72 22.5 -103t85.5 -31q84 0 154 72v424h-100v242h487v-756h127v-227q-145 -49 -272 -50q-109 0 -159 37t-63 111q-133 -127 -282 -148v-170h129v-239h-639v239h121v959h-125z" />
<glyph unicode="&#x3bc;" horiz-adv-x="1355" d="M35 766v244h514v-604q0 -72 22.5 -103t85.5 -31q84 0 154 72v424h-100v242h487v-756h127v-227q-145 -49 -272 -50q-109 0 -159 37t-63 111q-133 -127 -282 -148v-170h129v-239h-639v239h121v959h-125z" />
<glyph unicode="&#xb6;" horiz-adv-x="1396" d="M84 997q0 195 124 328t324 133h799v-248h-137v-1654h-254v1654h-113v-1654h-444v225h188v772h-39q-195 0 -321.5 121.5t-126.5 322.5z" />
<glyph unicode="&#xb7;" horiz-adv-x="622" d="M123 567q0 82 56.5 138.5t136 56.5t136 -56.5t56.5 -138.5q0 -78 -57.5 -134t-135.5 -56q-80 0 -136 56t-56 134z" />
<glyph unicode="&#xb8;" horiz-adv-x="1028" d="M383 -414q225 23 225 109q0 37 -35.5 50t-109.5 13h-35l-39 58l211 278q16 -12 48 -30.5t42 -24.5l-112 -152q104 -6 162.5 -53t58.5 -127q0 -98 -103.5 -166.5t-310.5 -70.5q0 18 -1 57t-1 59z" />
<glyph unicode="&#xb9;" horiz-adv-x="849" d="M72 1481l254 84h237v-645h182v-191h-641v191h177v413q-4 0 -47.5 -4t-83 -8t-48.5 -6z" />
<glyph unicode="&#xba;" horiz-adv-x="888" d="M55 889q0 154 99.5 249t291.5 95q190 0 289 -95.5t99 -248.5q0 -156 -99.5 -251t-294.5 -95q-193 0 -289 94t-96 252zM338 887q0 -166 108 -166q104 0 105 168q0 162 -105 162q-108 0 -108 -164z" />
<glyph unicode="&#xbb;" horiz-adv-x="1112" d="M74 752l157 104l371 -399v-78l-364 -402l-160 115l215 326zM520 752l156 104l373 -399v-78l-369 -402l-156 115l213 326z" />
<glyph unicode="&#xbc;" horiz-adv-x="2007" d="M143 1296l254 84h238v-645h182v-190h-641v190h176v414q-4 0 -47 -4t-83 -8t-48 -7zM596 -39l682 1501h219l-684 -1501h-217zM1073 236v131q295 350 385 467h266v-439h129v-159h-129v-72h82v-160h-420v160h74v72h-387zM1307 395h155v187h-2q-25 -33 -76.5 -93.5 t-76.5 -93.5z" />
<glyph unicode="&#xbd;" horiz-adv-x="2007" d="M98 1296l254 84h238v-645h182v-190h-641v190h176v414q-4 0 -47 -4t-83 -8t-48 -7zM571 -39l682 1501h220l-685 -1501h-217zM1180 735q168 109 346 109q166 0 254 -67.5t88 -188.5q0 -182 -340 -398h178v62h205v-256h-717v170q12 8 66.5 49t77 58.5t69.5 55.5t70.5 62.5 t52.5 56t41 59.5t12 52q0 70 -94 70q-100 0 -221 -66z" />
<glyph unicode="&#xbe;" horiz-adv-x="2007" d="M143 606l37 92q33 82 35 93q127 -41 248 -41q61 0 95 22.5t34 61.5q0 80 -141 79q-39 0 -89 -6l-26 115q10 8 55 46t87 74t54 48h-149v-68h-193v258h641q14 -86 35 -147q-8 -6 -98 -82t-109 -92q102 -23 160 -81t58 -149q0 -139 -111 -216.5t-283 -77.5q-207 -1 -340 71z M598 -39l682 1501h219l-684 -1501h-217zM1071 236v131q295 350 385 467h266v-439h129v-159h-129v-72h82v-160h-420v160h74v72h-387zM1305 395h155v187h-2q-25 -33 -76.5 -93.5t-76.5 -93.5z" />
<glyph unicode="&#xbf;" horiz-adv-x="1107" d="M106 -113q0 121 84 226q43 55 130.5 140t129.5 145.5t42 125.5q0 25 -7 64l312 6q8 -66 8 -125q0 -63 -12.5 -114.5t-47 -100.5t-53 -71.5t-74 -75t-65.5 -62.5q-55 -55 -55 -106q0 -59 45 -92t123 -33q66 0 122 14q0 25 1.5 76t1.5 78h258v-361q-219 -84 -474 -84 q-223 0 -346 94t-123 256zM432 850q0 72 54.5 123t129.5 51q78 0 132.5 -52t54.5 -122q0 -72 -54.5 -124t-132 -52t-131 51t-53.5 125z" />
<glyph unicode="&#xc0;" horiz-adv-x="1626" d="M41 0v248h111l430 1165h485l406 -1165h112v-248h-627v248h119l-45 145h-465l-47 -145h125v-248h-604zM440 1804l170 201l346 -358l-112 -129zM649 629h309q-4 14 -145 479h-8q-14 -53 -76 -238.5t-80 -240.5z" />
<glyph unicode="&#xc1;" horiz-adv-x="1626" d="M41 0v248h111l430 1165h485l406 -1165h112v-248h-627v248h119l-45 145h-465l-47 -145h125v-248h-604zM649 629h309q-4 14 -145 479h-8q-14 -53 -76 -238.5t-80 -240.5zM713 1649l346 360l178 -203l-410 -286z" />
<glyph unicode="&#xc2;" horiz-adv-x="1626" d="M41 0v248h111l430 1165h485l406 -1165h112v-248h-627v248h119l-45 145h-465l-47 -145h125v-248h-604zM371 1624l319 315h234l327 -313l-92 -106l-354 206l-348 -204zM649 629h309q-4 14 -145 479h-8q-14 -53 -76 -238.5t-80 -240.5z" />
<glyph unicode="&#xc3;" horiz-adv-x="1626" d="M41 0v248h111l430 1165h485l406 -1165h112v-248h-627v248h119l-45 145h-465l-47 -145h125v-248h-604zM385 1624q78 217 238 217q68 0 205 -37t194 -37l113 82l102 -77q-74 -223 -231 -224q-82 0 -222.5 39t-179.5 39l-112 -80zM649 629h309q-4 14 -145 479h-8 q-14 -53 -76 -238.5t-80 -240.5z" />
<glyph unicode="&#xc4;" horiz-adv-x="1626" d="M41 0v248h111l430 1165h485l406 -1165h112v-248h-627v248h119l-45 145h-465l-47 -145h125v-248h-604zM463 1661q0 59 41 100t98 41q59 0 101 -41t42 -100t-40.5 -100t-100 -41t-100.5 41t-41 100zM649 629h309q-4 14 -145 479h-8q-14 -53 -76 -238.5t-80 -240.5z M895 1661q0 59 41 100t100.5 41t100.5 -41t41 -100t-41 -100t-100.5 -41t-100.5 41t-41 100z" />
<glyph unicode="&#xc5;" horiz-adv-x="1626" d="M41 0v248h111l430 1165h485l406 -1165h112v-248h-627v248h119l-45 145h-465l-47 -145h125v-248h-604zM528 1782q0 109 82 189.5t199 80.5t194.5 -80t77.5 -190q0 -115 -78.5 -194t-193.5 -79q-117 0 -199 80t-82 193zM649 629h309q-4 14 -145 479h-8q-14 -53 -76 -238.5 t-80 -240.5zM698 1776q0 -41 31 -73t80 -32q45 0 73.5 32t28.5 73q0 45 -27.5 77.5t-74.5 32.5q-45 0 -78 -33.5t-33 -76.5z" />
<glyph unicode="&#xc6;" horiz-adv-x="2228" d="M33 0v250h104l570 909h-103v254h1522v-481h-271v233h-372v-323l358 6v-242l-358 4v-360h393v250h270v-500h-1208v250h149v156h-454l-98 -156h108v-250h-610zM760 641h327v512h-10z" />
<glyph unicode="&#xc7;" horiz-adv-x="1368" d="M102 707q0 115 18.5 214t69 198.5t130 169t214 113.5t308.5 44q199 0 391 -57v-455h-272v207q-49 10 -113 10q-174 0 -251 -112.5t-77 -321.5q0 -244 92.5 -337t298.5 -93q156 0 324 41l57 -271q-176 -70 -430 -80q-51 -66 -94 -124q104 -6 162.5 -53.5t58.5 -127.5 q0 -98 -103.5 -166.5t-310.5 -70.5q0 20 -1 59t-1 57q225 23 226 109q0 37 -36 50.5t-110 13.5h-35l-38 57l149 199q-182 12 -309 74.5t-193.5 166t-95.5 221.5t-29 265z" />
<glyph unicode="&#xc8;" horiz-adv-x="1460" d="M90 0v252h148v911h-146v250h1272v-485h-270v235h-461v-321l434 16v-260l-434 12v-358h481v252h272v-504h-1296zM440 1804l170 201l346 -358l-112 -129z" />
<glyph unicode="&#xc9;" horiz-adv-x="1460" d="M90 0v252h148v911h-146v250h1272v-485h-270v235h-461v-321l434 16v-260l-434 12v-358h481v252h272v-504h-1296zM606 1649l346 360l178 -203l-409 -286z" />
<glyph unicode="&#xca;" horiz-adv-x="1460" d="M90 0v252h148v911h-146v250h1272v-485h-270v235h-461v-321l434 16v-260l-434 12v-358h481v252h272v-504h-1296zM326 1624l319 315h234l327 -313l-92 -106l-354 206l-348 -204z" />
<glyph unicode="&#xcb;" horiz-adv-x="1460" d="M90 0v252h148v911h-146v250h1272v-485h-270v235h-461v-321l434 16v-260l-434 12v-358h481v252h272v-504h-1296zM408 1661q0 59 40.5 100t98.5 41q59 0 101 -41t42 -100t-41 -100t-100.5 -41t-100 41t-40.5 100zM840 1661q0 59 41 100t100 41t100 -41t41 -100t-41 -100 t-100 -41t-100 41t-41 100z" />
<glyph unicode="&#xcc;" horiz-adv-x="972" d="M98 1804l170 201l346 -358l-112 -129zM143 0v250h148v913h-148v252h686v-252h-143v-913h143v-250h-686z" />
<glyph unicode="&#xcd;" horiz-adv-x="972" d="M143 0v250h148v913h-148v252h686v-252h-143v-913h143v-250h-686zM391 1649l346 360l178 -203l-409 -286z" />
<glyph unicode="&#xce;" horiz-adv-x="972" d="M51 1624l320 315h233l328 -313l-92 -106l-355 206l-348 -204zM143 0v250h148v913h-148v252h686v-252h-143v-913h143v-250h-686z" />
<glyph unicode="&#xcf;" horiz-adv-x="972" d="M121 1661q0 59 41 100t98 41q59 0 101 -41t42 -100t-40.5 -100t-100 -41t-100.5 41t-41 100zM143 0v250h148v913h-148v252h686v-252h-143v-913h143v-250h-686zM553 1661q0 59 41 100t100.5 41t100.5 -41t41 -100t-41 -100t-100.5 -41t-100.5 41t-41 100z" />
<glyph unicode="&#xd0;" horiz-adv-x="1605" d="M90 0v250h154v403h-144v160h144v352h-144v250h734q670 0 669 -704q0 -147 -34.5 -270.5t-110.5 -224.5t-211 -158.5t-320 -57.5h-737zM641 250h145q133 0 215 116.5t82 338.5q0 229 -79.5 344.5t-223.5 115.5h-139v-352h193v-160h-193v-403z" />
<glyph unicode="&#xd1;" horiz-adv-x="1802" d="M86 0v248h143v915h-141v250h563q401 -635 457 -729q43 -63 88 -143h10v622h-137v250h641v-250h-137v-1163h-387l-326 502l-174 274l-90 146q-2 0 -2 -1t-2 -1v-672h139v-248h-645zM461 1628q78 217 237 217q68 0 205 -36.5t195 -36.5l112 81l103 -77q-74 -223 -232 -224 q-82 0 -222 39t-179 39l-113 -80z" />
<glyph unicode="&#xd2;" horiz-adv-x="1624" d="M102 709q0 328 181.5 531.5t531.5 203.5t528.5 -203t178.5 -530.5t-183.5 -530.5t-523.5 -203q-350 0 -531.5 199t-181.5 533zM461 1804l170 201l346 -358l-113 -129zM520 709q0 -225 68.5 -342t226.5 -117q285 0 285 459q0 461 -285 460q-295 1 -295 -460z" />
<glyph unicode="&#xd3;" horiz-adv-x="1624" d="M102 709q0 328 181.5 531.5t531.5 203.5t528.5 -203t178.5 -530.5t-183.5 -530.5t-523.5 -203q-350 0 -531.5 199t-181.5 533zM520 709q0 -225 68.5 -342t226.5 -117q285 0 285 459q0 461 -285 460q-295 1 -295 -460zM700 1649l347 360l178 -203l-410 -286z" />
<glyph unicode="&#xd4;" horiz-adv-x="1624" d="M102 709q0 328 181.5 531.5t531.5 203.5t528.5 -203t178.5 -530.5t-183.5 -530.5t-523.5 -203q-350 0 -531.5 199t-181.5 533zM379 1624l319 315h234l328 -313l-93 -106l-354 206l-348 -204zM520 709q0 -225 68.5 -342t226.5 -117q285 0 285 459q0 461 -285 460 q-295 1 -295 -460z" />
<glyph unicode="&#xd5;" horiz-adv-x="1624" d="M102 709q0 328 181.5 531.5t531.5 203.5t528.5 -203t178.5 -530.5t-183.5 -530.5t-523.5 -203q-350 0 -531.5 199t-181.5 533zM393 1632q78 217 238 217q68 0 205 -36.5t194 -36.5l113 82l102 -78q-74 -223 -231 -224q-82 0 -222.5 39t-179.5 39l-112 -80zM520 709 q0 -225 68.5 -342t226.5 -117q285 0 285 459q0 461 -285 460q-295 1 -295 -460z" />
<glyph unicode="&#xd6;" horiz-adv-x="1624" d="M102 709q0 328 181.5 531.5t531.5 203.5t528.5 -203t178.5 -530.5t-183.5 -530.5t-523.5 -203q-350 0 -531.5 199t-181.5 533zM453 1661q0 59 41 100t98 41q59 0 101 -41t42 -100t-41 -100t-100 -41t-100 41t-41 100zM520 709q0 -225 68.5 -342t226.5 -117q285 0 285 459 q0 461 -285 460q-295 1 -295 -460zM885 1661q0 59 41 100t100 41t100 -41t41 -100t-41 -100t-100 -41t-100 41t-41 100z" />
<glyph unicode="&#xd7;" d="M250 362l258 259l-258 258l149 149l256 -258l252 254l154 -156l-250 -252l254 -254l-150 -151l-253 256l-259 -258z" />
<glyph unicode="&#xd8;" horiz-adv-x="1624" d="M100 -18l174 202q-172 193 -172 525q0 328 181.5 531.5t531.5 203.5q266 0 438 -125l107 127h166l-180 -207q176 -195 176 -528q0 -328 -183.5 -531t-523.5 -203q-279 0 -455 132l-112 -127h-148zM520 709q0 -131 27 -217l479 569q-74 111 -211 110q-295 1 -295 -462z M588 365q76 -117 227 -117q285 0 285 461q0 135 -31 225z" />
<glyph unicode="&#xd9;" horiz-adv-x="1638" d="M70 1163v252h624v-252h-121v-651q0 -260 250 -260q242 0 242 260v651h-117v252h621v-252h-121v-633q0 -551 -627 -550q-334 0 -485.5 140t-151.5 410v633h-114zM438 1804l170 201l346 -358l-112 -129z" />
<glyph unicode="&#xda;" horiz-adv-x="1638" d="M70 1163v252h624v-252h-121v-651q0 -260 250 -260q242 0 242 260v651h-117v252h621v-252h-121v-633q0 -551 -627 -550q-334 0 -485.5 140t-151.5 410v633h-114zM705 1649l346 360l178 -203l-410 -286z" />
<glyph unicode="&#xdb;" horiz-adv-x="1638" d="M70 1163v252h624v-252h-121v-651q0 -260 250 -260q242 0 242 260v651h-117v252h621v-252h-121v-633q0 -551 -627 -550q-334 0 -485.5 140t-151.5 410v633h-114zM367 1622l331 309h242l342 -307l-96 -104l-369 202l-360 -200z" />
<glyph unicode="&#xdc;" horiz-adv-x="1638" d="M70 1163v252h624v-252h-121v-651q0 -260 250 -260q242 0 242 260v651h-117v252h621v-252h-121v-633q0 -551 -627 -550q-334 0 -485.5 140t-151.5 410v633h-114zM459 1661q0 59 41 100t98 41q59 0 101 -41t42 -100t-41 -100t-100 -41t-100 41t-41 100zM891 1661 q0 59 41 100t100.5 41t100.5 -41t41 -100t-41 -100t-100.5 -41t-100.5 41t-41 100z" />
<glyph unicode="&#xdd;" horiz-adv-x="1501" d="M29 1161v254h620v-254h-112l215 -389h8l215 389h-117v254h615v-254h-107l-408 -649v-262h154v-250h-735v250h155v260l-401 651h-102zM645 1647l346 360l178 -203l-409 -286z" />
<glyph unicode="&#xde;" horiz-adv-x="1402" d="M86 0v227h152v947h-152v241h688v-241h-141v-84h198q526 0 527 -375q0 -168 -127 -276.5t-369 -106.5l-229 2v-107h141v-227h-688zM633 541h123q88 0 139 44t51 126q0 176 -201 176h-112v-346z" />
<glyph unicode="&#xdf;" horiz-adv-x="1492" d="M55 0v242h140v520h-132v196h132v148q0 47 10 95t44 108.5t87 105.5t152.5 77t228.5 32q137 0 239.5 -33t153.5 -85t73.5 -102.5t22.5 -97.5q0 -68 -33.5 -130t-72.5 -97t-73 -72t-34 -59q0 -33 45 -72t109.5 -82t130 -94t111 -126t45.5 -157q0 -160 -119 -252t-334 -92 q-141 0 -315 45v316h215v-121q49 -12 84 -12q41 0 69.5 21.5t28.5 64.5q0 49 -40 101t-97.5 100.5t-113.5 98.5t-96 115.5t-40 135.5q0 59 29.5 111t65.5 82t65.5 64.5t29.5 67.5q0 41 -31.5 72t-99.5 31q-160 0 -160 -183v-1083h-520z" />
<glyph unicode="&#xe0;" horiz-adv-x="1245" d="M63 270q0 119 80 196t283 101l272 25v33q0 70 -35.5 104.5t-123.5 34.5q-166 0 -308 -45l-57 229q193 82 461 82q209 0 317.5 -83t108.5 -277v-424h139q12 -139 17 -209q-131 -61 -312 -62q-84 0 -132 30t-52 108q0 2 -2 2q-131 -139 -332 -140q-92 0 -159.5 29 t-101.5 76t-48.5 94t-14.5 96zM311 1372l172 203l346 -361l-112 -129zM459 317q0 -113 104 -112q70 0 131 57v174l-137 -18q-98 -15 -98 -101z" />
<glyph unicode="&#xe1;" horiz-adv-x="1245" d="M63 270q0 119 80 196t283 101l272 25v33q0 70 -35.5 104.5t-123.5 34.5q-166 0 -308 -45l-57 229q193 82 461 82q209 0 317.5 -83t108.5 -277v-424h139q12 -139 17 -209q-131 -61 -312 -62q-84 0 -132 30t-52 108q0 2 -2 2q-131 -139 -332 -140q-92 0 -159.5 29 t-101.5 76t-48.5 94t-14.5 96zM375 1214l346 361l178 -203l-410 -287zM459 317q0 -113 104 -112q70 0 131 57v174l-137 -18q-98 -15 -98 -101z" />
<glyph unicode="&#xe2;" horiz-adv-x="1245" d="M63 270q0 119 80 196t283 101l272 25v33q0 70 -35.5 104.5t-123.5 34.5q-166 0 -308 -45l-57 229q193 82 461 82q209 0 317.5 -83t108.5 -277v-424h139q12 -139 17 -209q-131 -61 -312 -62q-84 0 -132 30t-52 108q0 2 -2 2q-131 -139 -332 -140q-92 0 -159.5 29 t-101.5 76t-48.5 94t-14.5 96zM178 1186l320 319h235l326 -317l-90 -107l-355 207l-350 -205zM459 317q0 -113 104 -112q70 0 131 57v174l-137 -18q-98 -15 -98 -101z" />
<glyph unicode="&#xe3;" horiz-adv-x="1245" d="M63 270q0 119 80 196t283 101l272 25v33q0 70 -35.5 104.5t-123.5 34.5q-166 0 -308 -45l-57 229q193 82 461 82q209 0 317.5 -83t108.5 -277v-424h139q12 -139 17 -209q-131 -61 -312 -62q-84 0 -132 30t-52 108q0 2 -2 2q-131 -139 -332 -140q-92 0 -159.5 29 t-101.5 76t-48.5 94t-14.5 96zM195 1231q78 217 237 217q68 0 205 -37t194 -37l113 82l103 -78q-74 -223 -232 -223q-82 0 -222 39t-179 39l-113 -80zM459 317q0 -113 104 -112q70 0 131 57v174l-137 -18q-98 -15 -98 -101z" />
<glyph unicode="&#xe4;" horiz-adv-x="1245" d="M63 270q0 119 80 196t283 101l272 25v33q0 70 -35.5 104.5t-123.5 34.5q-166 0 -308 -45l-57 229q193 82 461 82q209 0 317.5 -83t108.5 -277v-424h139q12 -139 17 -209q-131 -61 -312 -62q-84 0 -132 30t-52 108q0 2 -2 2q-131 -139 -332 -140q-92 0 -159.5 29 t-101.5 76t-48.5 94t-14.5 96zM289 1251.5q0 59.5 41 100.5t98 41q61 0 102 -40t41 -102q0 -59 -41 -100t-100 -41t-100 41t-41 100.5zM459 317q0 -113 104 -112q70 0 131 57v174l-137 -18q-98 -15 -98 -101zM721 1251.5q0 59.5 41 100.5t100 41q61 0 102.5 -40t41.5 -102 q0 -59 -41 -100t-103 -41q-59 0 -100 41t-41 100.5z" />
<glyph unicode="&#xe5;" horiz-adv-x="1245" d="M63 270q0 119 80 196t283 101l272 25v33q0 70 -35.5 104.5t-123.5 34.5q-166 0 -308 -45l-57 229q193 82 461 82q209 0 317.5 -83t108.5 -277v-424h139q12 -139 17 -209q-131 -61 -312 -62q-84 0 -132 30t-52 108q0 2 -2 2q-131 -139 -332 -140q-92 0 -159.5 29 t-101.5 76t-48.5 94t-14.5 96zM352 1389q0 109 82 189.5t199 80.5t194.5 -80t77.5 -190q0 -115 -78.5 -194t-193.5 -79q-117 0 -199 80t-82 193zM459 317q0 -113 104 -112q70 0 131 57v174l-137 -18q-98 -15 -98 -101zM522 1382q0 -41 31 -72.5t80 -31.5q45 0 73.5 31.5 t28.5 72.5q0 45 -27.5 78t-74.5 33q-45 0 -78 -34t-33 -77z" />
<glyph unicode="&#xe6;" horiz-adv-x="1769" d="M55 272q0 51 14.5 99.5t49.5 100.5t113.5 84t191.5 32h303v39q0 74 -43 106.5t-139 32.5q-180 0 -334 -45l-57 229q193 82 467 82q92 0 181 -29.5t128 -89.5q115 121 313 121q137 0 234.5 -44t145.5 -121.5t68.5 -158.5t20.5 -175v-82h-614q0 -109 51 -157t170 -48 q131 0 299 57l70 -223q-180 -102 -441 -102q-162 0 -256 35.5t-151 113.5q-172 -156 -430 -156q-193 0 -274 92t-81 207zM451 326q0 -119 120 -119q37 0 90.5 18.5t88.5 55.5q-23 76 -27 165h-113q-159 1 -159 -120zM1104 590h270q0 190 -127 190q-135 0 -143 -190z" />
<glyph unicode="&#xe7;" horiz-adv-x="1083" d="M78 500q0 102 23.5 189t81 170t170 130t274.5 47q199 0 346 -55v-342h-250v123q-18 4 -61 4q-96 0 -143.5 -69.5t-47.5 -184.5q0 -143 54.5 -201.5t152.5 -58.5q137 0 278 45q8 -33 33 -114t35 -122q-154 -74 -365 -79l-67 -95q104 -6 162.5 -53t58.5 -127 q0 -98 -103.5 -166.5t-310.5 -70.5q0 18 -1 57t-1 59q225 23 226 109q0 37 -36 50t-110 13h-35l-39 58l127 168q-452 35 -452 516z" />
<glyph unicode="&#xe8;" horiz-adv-x="1171" d="M82 502q0 102 27.5 192t86 169t166 125t252.5 46q113 0 200 -29.5t138.5 -76.5t84 -115t44 -134.5t11.5 -143.5v-84h-625q0 -111 52 -157t171 -46q143 0 305 57l74 -225q-190 -102 -453 -103q-534 1 -534 525zM295 1372l172 203l346 -361l-113 -129zM473 604h272 q-4 174 -129 174q-70 0 -105.5 -50t-37.5 -124z" />
<glyph unicode="&#xe9;" horiz-adv-x="1171" d="M82 502q0 102 27.5 192t86 169t166 125t252.5 46q113 0 200 -29.5t138.5 -76.5t84 -115t44 -134.5t11.5 -143.5v-84h-625q0 -111 52 -157t171 -46q143 0 305 57l74 -225q-190 -102 -453 -103q-534 1 -534 525zM375 1214l346 361l178 -203l-410 -287zM473 604h272 q-4 174 -129 174q-70 0 -105.5 -50t-37.5 -124z" />
<glyph unicode="&#xea;" horiz-adv-x="1171" d="M82 502q0 102 27.5 192t86 169t166 125t252.5 46q113 0 200 -29.5t138.5 -76.5t84 -115t44 -134.5t11.5 -143.5v-84h-625q0 -111 52 -157t171 -46q143 0 305 57l74 -225q-190 -102 -453 -103q-534 1 -534 525zM184 1186l320 319h235l326 -317l-90 -107l-354 207 l-351 -205zM473 604h272q-4 174 -129 174q-70 0 -105.5 -50t-37.5 -124z" />
<glyph unicode="&#xeb;" horiz-adv-x="1171" d="M82 502q0 102 27.5 192t86 169t166 125t252.5 46q113 0 200 -29.5t138.5 -76.5t84 -115t44 -134.5t11.5 -143.5v-84h-625q0 -111 52 -157t171 -46q143 0 305 57l74 -225q-190 -102 -453 -103q-534 1 -534 525zM262 1251.5q0 59.5 41 100.5t98 41q61 0 102.5 -40 t41.5 -102q0 -59 -41 -100t-100.5 -41t-100.5 41t-41 100.5zM473 604h272q-4 174 -129 174q-70 0 -105.5 -50t-37.5 -124zM694 1251.5q0 59.5 41 100.5t101 41q61 0 102 -40t41 -102q0 -59 -41 -100t-102 -41q-59 0 -100.5 41t-41.5 100.5z" />
<glyph unicode="&#xec;" horiz-adv-x="798" d="M61 1372l172 203l347 -361l-113 -129zM88 770v240h492v-754h141v-227q-123 -53 -275 -54q-137 0 -194 55.5t-57 172.5v567h-107z" />
<glyph unicode="&#xed;" horiz-adv-x="798" d="M88 770v240h492v-754h141v-227q-123 -53 -275 -54q-137 0 -194 55.5t-57 172.5v567h-107zM180 1214l346 361l179 -203l-410 -287z" />
<glyph unicode="&#xee;" horiz-adv-x="815" d="M-66 1186l320 319h235l326 -317l-90 -107l-354 207l-351 -205zM88 770v240h492v-754h141v-227q-123 -53 -275 -54q-137 0 -194 55.5t-57 172.5v567h-107z" />
<glyph unicode="&#xef;" horiz-adv-x="798" d="M27 1251.5q0 59.5 41 100.5t98 41q61 0 102 -40t41 -102q0 -59 -41 -100t-100 -41t-100 41t-41 100.5zM88 770v240h492v-754h141v-227q-123 -53 -275 -54q-137 0 -194 55.5t-57 172.5v567h-107zM459 1251.5q0 59.5 41 100.5t100 41q61 0 102 -40t41 -102 q0 -59 -40.5 -100t-102.5 -41q-59 0 -100 41t-41 100.5z" />
<glyph unicode="&#xf0;" horiz-adv-x="1294" d="M82 469q0 205 142.5 350.5t363.5 145.5q121 0 205 -43q-41 137 -134 241l-176 -116l-63 96l151 102q-74 61 -168 115l97 186q172 -66 299 -151l170 114l67 -96l-135 -88q340 -279 307 -778q-6 -104 -34.5 -194.5t-90 -179.5t-178.5 -141t-278 -52q-150 0 -259.5 41.5 t-170 114.5t-88 156t-27.5 177zM473 483q0 -246 170 -245q180 0 180 301q0 66 -8 125q-84 51 -166 51q-94 0 -135 -67t-41 -165z" />
<glyph unicode="&#xf1;" horiz-adv-x="1425" d="M55 770v240h504v-88q2 0 6 -1t6 -1q164 115 320 114q348 0 348 -362v-418h131v-225q-121 -51 -264 -52q-252 0 -252 240v377q0 80 -29.5 113.5t-95.5 33.5q-78 0 -162 -61v-680h-389v770h-123zM223 1241q78 217 238 217q68 0 205 -37t194 -37l113 82l102 -77 q-74 -223 -231 -224q-82 0 -222.5 39t-179.5 39l-112 -80z" />
<glyph unicode="&#xf2;" horiz-adv-x="1286" d="M82 506q0 233 143.5 379.5t420 146.5t417.5 -145.5t141 -381t-142 -380.5t-423 -145q-276 0 -416.5 144t-140.5 382zM303 1372l172 203l346 -361l-112 -129zM477 506q0 -127 36 -197.5t130 -70.5q166 0 166 268q0 262 -162 262q-170 0 -170 -262z" />
<glyph unicode="&#xf3;" horiz-adv-x="1286" d="M82 506q0 233 143.5 379.5t420 146.5t417.5 -145.5t141 -381t-142 -380.5t-423 -145q-276 0 -416.5 144t-140.5 382zM426 1214l346 361l178 -203l-409 -287zM477 506q0 -127 36 -197.5t130 -70.5q166 0 166 268q0 262 -162 262q-170 0 -170 -262z" />
<glyph unicode="&#xf4;" horiz-adv-x="1286" d="M82 506q0 233 143.5 379.5t420 146.5t417.5 -145.5t141 -381t-142 -380.5t-423 -145q-276 0 -416.5 144t-140.5 382zM207 1186l319 319h236l325 -317l-90 -107l-354 207l-350 -205zM477 506q0 -127 36 -197.5t130 -70.5q166 0 166 268q0 262 -162 262q-170 0 -170 -262z " />
<glyph unicode="&#xf5;" horiz-adv-x="1286" d="M82 506q0 233 143.5 379.5t420 146.5t417.5 -145.5t141 -381t-142 -380.5t-423 -145q-276 0 -416.5 144t-140.5 382zM223 1212q78 217 238 218q68 0 205 -37t194 -37l113 82l102 -78q-74 -223 -231 -223q-82 0 -222.5 38.5t-179.5 38.5l-112 -79zM477 506 q0 -127 36 -197.5t130 -70.5q166 0 166 268q0 262 -162 262q-170 0 -170 -262z" />
<glyph unicode="&#xf6;" horiz-adv-x="1286" d="M82 506q0 233 143.5 379.5t420 146.5t417.5 -145.5t141 -381t-142 -380.5t-423 -145q-276 0 -416.5 144t-140.5 382zM281 1251.5q0 59.5 40.5 100.5t98.5 41q61 0 102 -40t41 -102q0 -59 -41 -100t-100.5 -41t-100 41t-40.5 100.5zM477 506q0 -127 36 -197.5t130 -70.5 q166 0 166 268q0 262 -162 262q-170 0 -170 -262zM713 1251.5q0 59.5 41 100.5t100 41q61 0 102 -40t41 -102q0 -59 -41 -100t-102 -41q-59 0 -100 41t-41 100.5z" />
<glyph unicode="&#xf7;" d="M193 520v213h903v-213h-903zM483 253.5q0 65.5 47.5 113t114.5 47.5q66 0 113 -47.5t47 -113t-47 -113.5t-113 -48q-68 0 -115 48t-47 113.5zM483 1001.5q0 65.5 47.5 112.5t114.5 47q66 0 113 -47t47 -112.5t-47 -113.5t-113 -48q-68 0 -115 48t-47 113.5z" />
<glyph unicode="&#xf8;" horiz-adv-x="1286" d="M76 -14l135 141q-129 135 -129 377q0 236 142.5 381t418.5 145q201 0 340 -88l80 88h141l-139 -149q137 -139 137 -377q0 -236 -142 -379t-423 -143q-217 0 -344 81q-49 -53 -76 -77h-141zM471 510q0 -70 12 -104l273 309q-39 53 -113 53q-84 0 -128 -70.5t-44 -187.5z M518 293q43 -57 125 -57q164 0 164 268q0 59 -14 100z" />
<glyph unicode="&#xf9;" horiz-adv-x="1402" d="M55 766v244h514v-604q0 -72 22.5 -103t86.5 -31q84 0 153 72v424h-100v242h488v-756h127v-227q-145 -49 -273 -50q-109 0 -159 37t-62 111q-158 -152 -340 -152q-164 0 -248 88.5t-84 253.5v451h-125zM350 1372l172 203l346 -361l-112 -129z" />
<glyph unicode="&#xfa;" horiz-adv-x="1402" d="M55 766v244h514v-604q0 -72 22.5 -103t86.5 -31q84 0 153 72v424h-100v242h488v-756h127v-227q-145 -49 -273 -50q-109 0 -159 37t-62 111q-158 -152 -340 -152q-164 0 -248 88.5t-84 253.5v451h-125zM516 1214l346 361l178 -203l-409 -287z" />
<glyph unicode="&#xfb;" horiz-adv-x="1402" d="M55 766v244h514v-604q0 -72 22.5 -103t86.5 -31q84 0 153 72v424h-100v242h488v-756h127v-227q-145 -49 -273 -50q-109 0 -159 37t-62 111q-158 -152 -340 -152q-164 0 -248 88.5t-84 253.5v451h-125zM254 1186l319 319h236l326 -317l-91 -107l-354 207l-350 -205z" />
<glyph unicode="&#xfc;" horiz-adv-x="1402" d="M55 766v244h514v-604q0 -72 22.5 -103t86.5 -31q84 0 153 72v424h-100v242h488v-756h127v-227q-145 -49 -273 -50q-109 0 -159 37t-62 111q-158 -152 -340 -152q-164 0 -248 88.5t-84 253.5v451h-125zM330 1251.5q0 59.5 41 100.5t98 41q61 0 102 -40t41 -102 q0 -59 -41 -100t-100 -41t-100 41t-41 100.5zM762 1251.5q0 59.5 41 100.5t100 41q61 0 102.5 -40t41.5 -102q0 -59 -41 -100t-103 -41q-59 0 -100 41t-41 100.5z" />
<glyph unicode="&#xfd;" horiz-adv-x="1333" d="M37 745v265h387l225 -760h8q135 426 166 516h-96v244h563v-244h-92l-381 -1010q-41 -102 -108.5 -155.5t-194.5 -53.5q-176 0 -330 56l45 256q86 -18 144 -19q70 -2 100.5 17.5t52.5 74.5l41 107h-180q-25 74 -130 371t-120 335h-100zM481 1214l346 361l179 -203 l-410 -287z" />
<glyph unicode="&#xfe;" horiz-adv-x="1361" d="M45 1174v239h504v-477l2 -2h4q133 92 291 92q434 0 434 -500q0 -547 -453 -546q-150 0 -266 55v-230h131v-237h-645v237h127v1369h-129zM561 291q84 -45 168 -45q68 0 118 60.5t50 213.5q0 143 -45 192.5t-123 49.5q-86 0 -168 -57v-414z" />
<glyph unicode="&#xff;" horiz-adv-x="1333" d="M37 745v265h387l225 -760h8q135 426 166 516h-96v244h563v-244h-92l-381 -1010q-41 -102 -108.5 -155.5t-194.5 -53.5q-176 0 -330 56l45 256q86 -18 144 -19q70 -2 100.5 17.5t52.5 74.5l41 107h-180q-25 74 -130 371t-120 335h-100zM297 1251.5q0 59.5 41 100.5t98 41 q61 0 102.5 -40t41.5 -102q0 -59 -41 -100t-100.5 -41t-100.5 41t-41 100.5zM729 1251.5q0 59.5 41 100.5t100 41q61 0 102.5 -40t41.5 -102q0 -59 -41 -100t-103 -41q-59 0 -100 41t-41 100.5z" />
<glyph unicode="&#x152;" horiz-adv-x="1978" d="M86 707q0 328 181.5 531.5t529.5 203.5q123 0 241 -31h852v-479h-270v231h-385v-321q55 2 179 8t177 6v-260q-53 0 -177 6t-179 6v-360h410v250h272v-498h-918q-106 -20 -202 -20q-350 0 -530.5 196.5t-180.5 530.5zM504 707q0 -225 68.5 -343t224.5 -118q29 0 43 2v919 q-4 0 -17.5 1t-21.5 1h-15q-282 -7 -282 -462z" />
<glyph unicode="&#x153;" horiz-adv-x="1886" d="M72 506q0 233 143 379.5t420 146.5q221 0 352 -127q123 137 359 137q139 0 238 -45t148.5 -121.5t71 -157.5t21.5 -175v-70h-627q0 -111 54.5 -164t168.5 -53q147 0 305 57l74 -223q-195 -104 -450 -104q-233 0 -355 120q-141 -127 -364 -126q-279 0 -419 143t-140 383z M467 506q0 -268 168 -268q164 0 164 268q0 264 -164 264q-168 0 -168 -264zM1204 598h277q-4 190 -131 190q-138 0 -146 -190z" />
<glyph unicode="&#x178;" horiz-adv-x="1501" d="M29 1161v254h620v-254h-112l215 -389h8l215 389h-117v254h615v-254h-107l-408 -649v-262h154v-250h-735v250h155v260l-401 651h-102zM383 1661q0 59 41 100t98 41q59 0 101.5 -41t42.5 -100t-41 -100t-100.5 -41t-100.5 41t-41 100zM815 1661q0 59 41 100t100.5 41 t100.5 -41t41 -100t-41 -100t-100.5 -41t-100.5 41t-41 100z" />
<glyph unicode="&#x2c6;" horiz-adv-x="1228" d="M178 1186l320 319h235l326 -317l-90 -107l-355 207l-350 -205z" />
<glyph unicode="&#x2dc;" horiz-adv-x="1228" d="M203 1214q78 217 237 218q68 0 205 -37t195 -37l112 82l103 -78q-74 -223 -232 -223q-82 0 -222 39t-179 39l-113 -80z" />
<glyph unicode="&#x2000;" horiz-adv-x="1026" />
<glyph unicode="&#x2001;" horiz-adv-x="2052" />
<glyph unicode="&#x2002;" horiz-adv-x="1026" />
<glyph unicode="&#x2003;" horiz-adv-x="2052" />
<glyph unicode="&#x2004;" horiz-adv-x="684" />
<glyph unicode="&#x2005;" horiz-adv-x="512" />
<glyph unicode="&#x2006;" horiz-adv-x="342" />
<glyph unicode="&#x2007;" horiz-adv-x="342" />
<glyph unicode="&#x2008;" horiz-adv-x="256" />
<glyph unicode="&#x2009;" horiz-adv-x="409" />
<glyph unicode="&#x200a;" horiz-adv-x="112" />
<glyph unicode="&#x2010;" horiz-adv-x="849" d="M131 430v256h588v-256h-588z" />
<glyph unicode="&#x2011;" horiz-adv-x="849" d="M131 430v256h588v-256h-588z" />
<glyph unicode="&#x2012;" horiz-adv-x="849" d="M131 430v256h588v-256h-588z" />
<glyph unicode="&#x2013;" horiz-adv-x="1024" d="M96 418v221h834v-221h-834z" />
<glyph unicode="&#x2014;" horiz-adv-x="2048" d="M129 418v221h1788v-221h-1788z" />
<glyph unicode="&#x2018;" horiz-adv-x="593" d="M102 1071q0 129 92.5 256t213.5 186l92 -122q-115 -94 -131 -203q125 -20 125 -160q0 -72 -55.5 -125t-139.5 -53q-98 0 -147.5 64.5t-49.5 156.5z" />
<glyph unicode="&#x2019;" horiz-adv-x="593" d="M104 973q115 94 132 203q-127 20 -127 159q0 74 55 127.5t141 53.5q98 0 146.5 -66t48.5 -158q0 -131 -90.5 -256t-212.5 -184z" />
<glyph unicode="&#x201a;" horiz-adv-x="624" d="M106 -209q117 100 136 225q-133 14 -133 162q0 74 56 127t144 53q100 0 150.5 -65.5t50.5 -159.5q0 -135 -87 -265t-220 -202z" />
<glyph unicode="&#x201c;" horiz-adv-x="997" d="M90 1071q0 129 91 255t214 187l35 -49q37 -49 57 -73q-119 -96 -131 -203q125 -20 125 -160q0 -74 -55 -126t-141 -52q-98 0 -146.5 64.5t-48.5 156.5zM518 1071q0 129 91 256t212 186q16 -20 47 -61t47 -61q-119 -98 -131 -203q125 -20 125 -160q0 -72 -55 -125 t-139 -53q-98 0 -147.5 64.5t-49.5 156.5z" />
<glyph unicode="&#x201d;" horiz-adv-x="997" d="M92 973q119 92 131 203q-125 20 -125 159q0 74 56.5 127.5t142.5 53.5q98 0 146.5 -66t48.5 -158q0 -129 -91.5 -255t-214.5 -185zM522 973q119 96 131 203q-125 20 -125 159q0 74 55.5 127.5t141.5 53.5q98 0 146.5 -66t48.5 -158q0 -131 -90.5 -256t-213.5 -184z" />
<glyph unicode="&#x201e;" horiz-adv-x="1085" d="M106 -209q117 100 136 225q-133 14 -133 162q0 74 56 127t144 53q100 0 150.5 -65.5t50.5 -159.5q0 -135 -87 -265t-220 -202zM571 -209q121 102 136 225q-131 14 -132 162q0 74 56.5 127t142.5 53q102 0 152.5 -65.5t50.5 -159.5q0 -135 -88 -265t-221 -202z" />
<glyph unicode="&#x2022;" horiz-adv-x="919" d="M162 549q0 125 87 212t212 87q123 0 210 -87t87 -212t-87 -213t-210 -88q-125 0 -212 88t-87 213z" />
<glyph unicode="&#x2026;" horiz-adv-x="1753" d="M113 176q0 78 57 134.5t137 56.5q78 0 134.5 -56.5t56.5 -134.5q0 -80 -56.5 -136t-134.5 -56q-80 0 -137 56t-57 136zM680 176q0 78 56.5 134.5t135.5 56.5q78 0 135.5 -56.5t57.5 -134.5q0 -80 -56.5 -136t-136 -56t-136 56t-56.5 136zM1253 176q0 76 57.5 133.5 t135.5 57.5q80 0 136 -56.5t56 -134.5q0 -80 -56 -136t-134 -56q-80 0 -137.5 56t-57.5 136z" />
<glyph unicode="&#x202f;" horiz-adv-x="409" />
<glyph unicode="&#x2039;" horiz-adv-x="763" d="M100 379v78l373 399l156 -104l-217 -334l213 -326l-158 -115z" />
<glyph unicode="&#x203a;" horiz-adv-x="763" d="M102 752l156 104l373 -399v-78l-365 -402l-160 115l213 326z" />
<glyph unicode="&#x205f;" horiz-adv-x="512" />
<glyph unicode="&#x20ac;" d="M53 526v117h891v-117h-399q49 -252 309 -252q49 0 98 9v116h250v-366q-186 -55 -405 -56q-307 0 -459 149.5t-180 399.5h-105zM53 725v125h105q14 115 55 208t115.5 172t199.5 123t293 44q176 0 359 -56v-360h-252v121q-47 12 -101 12q-246 0 -288 -264h405v-125h-891z " />
<glyph unicode="&#x2122;" horiz-adv-x="1918" d="M57 1145v268h725v-268h-149v127h-105v-459h90v-139h-399v139h90v459h-102v-127h-150zM819 674v139h82v461h-82v139h355l77 -166q4 -8 44 -97t48 -106h3q6 14 45 102.5t45 102.5l71 164h357v-139h-72v-461h72v-139h-348v139h63v320h-4l-80 -179q-20 -37 -59 -139h-179 q-2 4 -32.5 69.5t-34.5 73.5q-4 6 -80 172h-2v-317h70v-139h-359z" />
<glyph unicode="&#xe000;" horiz-adv-x="1010" d="M0 1010h1010v-1010h-1010v1010z" />
<glyph unicode="&#xfb01;" horiz-adv-x="1523" d="M68 768v209l149 43v92q0 422 485 422q240 0 457 -61l-49 -267q-203 33 -313 33q-106 0 -156.5 -37t-50.5 -131v-61h715v-754h143v-227q-125 -53 -277 -54q-137 0 -194 54.5t-57 169.5l-2 569h-328v-526h127v-242h-627v242h125v526h-147z" />
<glyph unicode="&#xfb02;" horiz-adv-x="1531" d="M68 768v209l149 43v88q0 420 485 420q145 0 312 -27l313 31v-1290h129v-242h-625v242h109v979q-76 12 -143 12q-106 0 -156.5 -37t-50.5 -129v-57h239v-242h-239v-526h110v-242h-610v242h125v526h-147z" />
<glyph unicode="&#xfb03;" horiz-adv-x="2234" d="M66 768v205q59 20 149 45v61q0 86 20.5 153.5t70.5 129t152.5 95.5t252.5 34q172 0 327 -47q117 109 412 108q219 -4 416 -61q-8 -45 -23.5 -134t-23.5 -130q-193 31 -314 30q-106 0 -156.5 -35.5t-50.5 -127.5v-86h715v-754h141v-227q-127 -49 -274 -50q-154 0 -204 69 t-50 210v512h-328v-528h134v-240h-619v240h111v528h-336v-528h106v-240h-606v240h125v528h-147zM588 1008h338v114q0 45 6 66q-86 18 -160 18q-100 0 -142 -33.5t-42 -115.5v-49z" />
<glyph unicode="&#xfb04;" horiz-adv-x="2240" d="M66 768v205q59 20 149 45v59q0 88 20.5 155.5t72.5 129t155.5 95.5t253.5 34q176 0 321 -47q63 61 164 84.5t273 23.5q117 -2 323 -28l238 32v-1316h127v-240h-623v240h109v1007q-86 10 -144 10q-106 0 -156.5 -35.5t-50.5 -127.5v-86h238v-240h-238v-528h117v-240h-606 v240h115v528h-336v-528h102v-240h-602v240h125v528h-147zM588 1008h338v120q0 29 6 60q-86 18 -160 18q-100 0 -142 -33.5t-42 -115.5v-49z" />
</font>
</defs>
</svg>
