<?xml version="1.0" standalone="no"?>
<!DOCTYPE svg PUBLIC "-//W3C//DTD SVG 1.1//EN" "http://www.w3.org/Graphics/SVG/1.1/DTD/svg11.dtd" >
<svg xmlns="http://www.w3.org/2000/svg">
<metadata>
This is a custom SVG webfont generated by Font Squirrel.
Copyright   : Copyright c 2006 Parachute wwwparachutegr  All rights reserved
Designer    : Panos Vassiliou
Foundry     : Parachute Worldwide
Foundry URL : httpwwwparachutegr
</metadata>
<defs>
<font id="PFCentroSlabProBlackItalic" horiz-adv-x="1251" >
<font-face units-per-em="2048" ascent="1536" descent="-512" />
<missing-glyph horiz-adv-x="630" />
<glyph unicode=" "  horiz-adv-x="630" />
<glyph unicode="&#x09;" horiz-adv-x="630" />
<glyph unicode="&#xa0;" horiz-adv-x="630" />
<glyph unicode="!" horiz-adv-x="655" d="M111 129q0 84 56 140.5t144 56.5q76 0 120 -46.5t44 -119.5q0 -82 -59.5 -134.5t-145.5 -52.5q-76 0 -117.5 44t-41.5 112zM190 430q2 27 24 271.5t43.5 493.5t23.5 263h344q-4 -41 -78 -512t-82 -516h-275z" />
<glyph unicode="&#x22;" horiz-adv-x="872" d="M223 858l29 559h297l-115 -559h-211zM580 858l26 559h293l-111 -559h-208z" />
<glyph unicode="#" horiz-adv-x="1253" d="M133 408l25 172h182l78 202h-170l24 170h203l133 367h191l-127 -367h172l133 367h190l-131 -367h154l-25 -170h-188l-76 -202h170l-22 -172h-205l-144 -410h-192l139 410h-170l-145 -410h-195l144 410h-148zM537 580h172l73 202h-170z" />
<glyph unicode="$" d="M113 106q12 84 45 343h196l-18 -146q49 -23 137 -33l43 328q-315 100 -315 352q0 182 114.5 294t294.5 138l19 146h92q-31 -250 -100.5 -817.5t-106.5 -866.5h-92q4 27 11 84.5t11 85.5q-196 20 -331 92zM483 997q2 -72 70 -100q16 162 27 227q-91 -29 -97 -127z M578 -156l208 1684h91l-19 -146q166 -14 272 -77q-25 -193 -40 -330h-197q4 23 10 69t10 68q-29 14 -84 25q-12 -92 -38 -316q70 -25 123 -51.5t105 -68.5t80.5 -104t28.5 -142q0 -186 -116.5 -297t-319.5 -138l-22 -176h-92zM723 285q111 29 111 141q0 68 -80 102z" />
<glyph unicode="%" horiz-adv-x="1884" d="M82 877q0 98 22.5 184t70.5 159.5t134 116.5t203 43q336 0 336 -346q0 -217 -105.5 -358t-324.5 -141q-336 0 -336 342zM340 860q0 -135 100 -135q76 0 114 91t38 228q0 147 -94 148q-59 0 -97.5 -59.5t-49.5 -128t-11 -144.5zM469 -39l848 1501h213l-850 -1501h-211z M1116 332q0 98 23.5 185t72 161t134.5 117t200 43q336 0 336 -346q0 -219 -105.5 -359.5t-322.5 -140.5q-178 0 -258 92t-80 248zM1376 317q0 -135 99 -135q76 0 113.5 90t37.5 228q0 147 -92 147q-47 0 -80 -32.5t-48 -86t-22.5 -105t-7.5 -106.5z" />
<glyph unicode="&#x26;" horiz-adv-x="1961" d="M49 664q16 102 58.5 209.5t122 217t184 193.5t255 137.5t322.5 53.5q188 0 331.5 -59.5t222.5 -159t117 -211t38 -234.5q0 -94 -21 -197q141 14 228 95l90 -150q-121 -137 -389 -162q-100 -207 -304 -337t-456 -130q-242 0 -368 124t-126 333q0 164 50.5 299t131 217 t174 126t185.5 44q129 0 208 -72.5t79 -160.5q0 -109 -95 -178v-5q49 8 109 9q88 0 211 -31q16 68 16 162q0 217 -119.5 334.5t-326.5 117.5q-150 0 -274.5 -56t-207.5 -149.5t-136.5 -196t-79.5 -214.5zM666 428q0 -252 252 -252q111 0 225 68.5t180 185.5q-127 39 -215 39 q-113 0 -246 -39l-59 164q90 59 90 111q0 27 -17.5 44t-46.5 17q-23 0 -48 -16.5t-53 -52t-45 -106.5t-17 -163z" />
<glyph unicode="'" horiz-adv-x="550" d="M217 858l29 559h297l-115 -559h-211z" />
<glyph unicode="(" horiz-adv-x="737" d="M139 436q0 301 131 561t346 461l146 -117q-68 -84 -133.5 -200.5t-129 -333.5t-63.5 -442q0 -137 26.5 -268.5t49.5 -187.5t59 -140l-172 -111q-121 145 -190.5 352t-69.5 426z" />
<glyph unicode=")" horiz-adv-x="737" d="M10 -225q49 61 96.5 141t104.5 206t92 292t35 340q0 301 -135 594l170 108q123 -147 192.5 -353t69.5 -419q0 -303 -134 -567t-345 -461z" />
<glyph unicode="*" horiz-adv-x="890" d="M162 1071q2 14 50 125t56 123q160 -106 201 -127l-18 246q12 4 126.5 4t127.5 -4l-82 -244l237 123q6 -12 26.5 -123t18.5 -129l-254 -31q113 -127 158 -168q-10 -12 -106.5 -78.5t-110.5 -72.5q-4 8 -38 112.5t-38 116.5l-131 -227q-12 4 -94 70.5t-90 78.5l200 172z " />
<glyph unicode="+" d="M231 520l25 211h328l43 346h211l-43 -346h325l-26 -211h-324l-45 -354h-211l43 354h-326z" />
<glyph unicode="," horiz-adv-x="608" d="M27 -170q127 94 151 197q-47 8 -74.5 45t-27.5 90q0 82 55 142.5t148 60.5q84 0 128 -57.5t44 -141.5q0 -131 -107.5 -263t-241.5 -196z" />
<glyph unicode="-" horiz-adv-x="825" d="M127 430l33 256h571l-33 -256h-571z" />
<glyph unicode="." horiz-adv-x="606" d="M82 150q0 90 64.5 151t148.5 61q70 0 116 -50t46 -124q0 -88 -63.5 -150.5t-145.5 -62.5q-72 0 -119 50.5t-47 124.5z" />
<glyph unicode="/" horiz-adv-x="800" d="M-55 -76l704 1532h266l-708 -1532h-262z" />
<glyph unicode="0" d="M70 532q0 131 20.5 251t69.5 231.5t121.5 193.5t186.5 131.5t255 49.5q272 0 395 -159t123 -423q0 -164 -37 -307.5t-111.5 -262t-203.5 -187t-299 -68.5q-270 0 -394 148t-126 402zM442 508q0 -258 168 -258q86 0 147.5 84t88 214t26.5 292q0 123 -39.5 200.5 t-125.5 77.5q-78 0 -133.5 -61.5t-82 -161.5t-38 -195.5t-11.5 -191.5z" />
<glyph unicode="1" d="M121 0l29 242h274l102 825l-288 -31l-11 207l383 129h326l-139 -1130h280l-28 -242h-928z" />
<glyph unicode="2" d="M27 0l24 217q352 264 461 361q264 233 264 383q0 135 -168 135q-145 0 -340 -105l-96 234q264 164 520 164q217 0 340 -96.5t123 -280.5q0 -84 -39 -174t-92 -162t-143 -158t-156 -139t-164 -129v-10h297l16 133h263l-45 -373h-1065z" />
<glyph unicode="3" d="M49 82q29 49 107 242q209 -68 336 -68q119 0 199.5 50t80.5 151q0 72 -55 110.5t-142 38.5q-49 0 -137 -12l-37 213q375 72 375 213q0 43 -34.5 72.5t-104.5 29.5q-139 0 -348 -92q-2 6 -41 119t-43 119q283 129 530 129q213 0 314.5 -88t101.5 -224q0 -88 -60.5 -176 t-181.5 -133v-12q115 -33 176.5 -115t61.5 -180q0 -211 -170 -351.5t-459 -140.5q-109 0 -245 25t-224 80z" />
<glyph unicode="4" d="M51 389l27 209q45 51 323.5 400.5t296.5 373.5h426l-90 -739h195l-31 -244h-194q-4 -59 -19 -149h123l-29 -240h-598q2 12 15.5 121.5t13.5 118.5h111l20 149h-590zM395 633h277l51 403h-10q-4 -6 -49.5 -65.5t-51.5 -67.5q-16 -20 -102 -128.5t-115 -141.5z" />
<glyph unicode="5" d="M72 86l104 254q188 -70 330 -70q123 0 198.5 54.5t75.5 169.5q0 78 -56 117.5t-142 39.5q-98 0 -215 -45l-164 84l133 682h852l-45 -362h-271l15 116h-291l-41 -239q88 20 141 20q217 0 338 -101t121 -294q0 -248 -175 -390t-439 -142q-106 0 -240.5 24.5t-228.5 81.5z " />
<glyph unicode="6" d="M100 498q0 188 42 345.5t128 280.5t227.5 192.5t325.5 69.5q182 0 316 -47l-72 -254q-104 33 -233 33q-141 0 -223.5 -90t-110.5 -217l8 -8q133 74 293 74t262 -95.5t102 -273.5q0 -252 -161.5 -390t-409.5 -138q-494 0 -494 518zM467 465q0 -203 156 -203q86 0 137 62.5 t51 169.5q0 135 -137 135q-78 0 -197 -66q-10 -57 -10 -98z" />
<glyph unicode="7" d="M184 0l641 1126h-303l-22 -182h-273l52 426h946l-31 -233l-649 -1137h-361z" />
<glyph unicode="8" d="M68 356q0 109 60 216.5t204 179.5q-123 88 -123 223q0 180 157.5 300t385.5 120q180 0 314 -89t134 -257q0 -201 -213 -334q174 -96 174 -299q0 -182 -158.5 -307t-437.5 -125q-233 0 -365 103t-132 269zM436 389q0 -57 43 -94t119 -37q102 0 150.5 51t48.5 117 q0 57 -49.5 101t-169.5 89q-142 -102 -142 -227zM551 993q0 -18 8 -35.5t17.5 -28.5t32 -25.5t36.5 -21.5l47 -24l49 -24q123 94 123 184q0 53 -34.5 86t-110.5 33q-82 0 -125 -48.5t-43 -95.5z" />
<glyph unicode="9" d="M137 860q0 252 163 390.5t411 138.5q494 0 493 -519q0 -186 -43 -344.5t-128 -281.5t-226 -192.5t-326 -69.5q-180 0 -313 47l65 252q106 -31 238 -31q141 0 223 90t109 217l-6 8q-133 -74 -293 -73q-162 0 -264.5 95t-102.5 273zM494 874q0 -135 137 -135q78 0 196 66 q8 47 9 100q0 201 -152 201q-88 0 -139 -63t-51 -169z" />
<glyph unicode=":" horiz-adv-x="604" d="M84 152q0 90 64.5 150t148.5 60q70 0 116 -49t46 -120q0 -90 -62.5 -153t-146.5 -63q-72 0 -119 50.5t-47 124.5zM156 735q0 88 65.5 149.5t147.5 61.5q70 0 115.5 -49t45.5 -123q0 -90 -62 -152.5t-146 -62.5q-72 0 -119 51t-47 125z" />
<glyph unicode=";" horiz-adv-x="604" d="M35 -170q127 94 151 197q-47 8 -74.5 45t-27.5 90q0 82 56.5 142.5t148.5 60.5q82 0 126 -57.5t44 -141.5q0 -131 -107.5 -263t-238.5 -196zM156 735q0 88 65.5 149.5t147.5 61.5q70 0 115.5 -49t45.5 -123q0 -90 -62 -152.5t-146 -62.5q-72 0 -119 51t-47 125z" />
<glyph unicode="&#x3c;" d="M154 522l22 185l1020 471l-33 -260l-686 -304q80 -39 314 -155l299 -150l-31 -256z" />
<glyph unicode="=" d="M174 334l27 203h878l-26 -203h-879zM219 688l25 207h878l-26 -207h-877z" />
<glyph unicode="&#x3e;" d="M98 53l31 258l690 305l-614 304l31 258l905 -471l-23 -185z" />
<glyph unicode="?" horiz-adv-x="1075" d="M166 1016l43 360q229 86 471 86q201 0 310.5 -90t109.5 -237q0 -129 -68.5 -217.5t-189.5 -169.5q-127 -86 -169 -133.5t-42 -131.5v-45q-258 -27 -293 -32q-6 61 -6 110q0 119 56 198t169 165q49 37 74.5 60.5t48 60t22.5 73.5q0 111 -145 111q-51 0 -123 -15l-20 -153 h-248zM305 123q0 80 56.5 139.5t144.5 59.5q72 0 117 -44.5t45 -111.5q0 -84 -60.5 -139.5t-142.5 -55.5q-68 0 -114 44.5t-46 107.5z" />
<glyph unicode="@" horiz-adv-x="1933" d="M186 604q0 371 267.5 621t656.5 250q309 0 496.5 -167t187.5 -450q0 -236 -138 -393.5t-345 -157.5q-106 0 -175 49.5t-75 149.5h-6q-96 -170 -260 -170q-111 0 -175.5 66.5t-64.5 191.5q0 219 103.5 360.5t291.5 141.5q92 0 178 -41l33 43l201 -17q-4 -29 -19.5 -116.5 t-23.5 -138t-16.5 -121t-8.5 -117.5q0 -90 72 -90q76 0 142.5 91t66.5 253q0 205 -126 320.5t-357 115.5q-289 0 -485.5 -187.5t-203.5 -467.5q0 -229 123 -368.5t373 -139.5q143 0 291 49q29 -92 47 -162q-154 -76 -363 -76q-334 0 -511 185.5t-177 492.5zM819 633 q0 -106 68 -107q98 0 166 265l20 96q-55 16 -98 16q-78 0 -117 -83t-39 -187z" />
<glyph unicode="A" horiz-adv-x="1576" d="M-12 0l28 250h111l561 1165h471l250 -1165h109l-31 -250h-596l29 250h116l-28 143h-449l-63 -143h118l-28 -250h-598zM666 631h301l-43 235l-39 246h-8l-103 -238z" />
<glyph unicode="B" horiz-adv-x="1474" d="M35 0q10 47 31 250h145q2 25 111 915h-144l33 248h827q197 0 293 -89t96 -245q0 -240 -215 -334l-2 -4q184 -72 185 -290q0 -209 -141.5 -330t-366.5 -121h-852zM594 250h190q96 0 151.5 55t55.5 148q0 68 -41 111.5t-121 43.5h-192q-4 -29 -21.5 -178t-21.5 -180z M666 838h172q84 0 136 52t52 136q0 139 -147 139h-172q-4 -27 -20.5 -163.5t-20.5 -163.5z" />
<glyph unicode="C" horiz-adv-x="1327" d="M129 571q0 135 19.5 251t75 235t142.5 201.5t231 135t333 52.5q203 0 385 -57l-55 -455h-265l23 199q-57 14 -107 14q-193 0 -283.5 -142.5t-90.5 -390.5q0 -180 80.5 -247.5t256.5 -67.5q133 0 308 39l45 -281q-211 -80 -484 -80q-176 0 -300 45.5t-190.5 130.5t-95 186 t-28.5 232z" />
<glyph unicode="D" horiz-adv-x="1556" d="M37 0l29 250h149l113 915h-142l33 250h688q590 0 590 -596q0 -168 -42 -311t-128 -260t-233.5 -182.5t-341.5 -65.5h-715zM600 250h127q154 0 258.5 142.5t104.5 422.5q0 350 -259 350h-118z" />
<glyph unicode="E" horiz-adv-x="1417" d="M37 0l29 250h143l110 915h-139l31 248h1225l-60 -481h-262l29 233h-438l-41 -323l372 8l-26 -246l-375 6l-43 -360h473l31 250h264l-60 -500h-1263z" />
<glyph unicode="F" horiz-adv-x="1394" d="M37 0l29 250h145l113 915h-144l31 248h1219l-62 -481h-262l29 233h-428l-41 -323l370 6l-26 -246l-373 8l-43 -360h182l-31 -250h-708z" />
<glyph unicode="G" horiz-adv-x="1464" d="M129 573q0 131 20.5 247t77 233.5t145.5 201.5t237.5 137.5t342.5 53.5q225 0 404 -57l-51 -443h-267l23 195q-53 12 -123 12q-203 0 -303 -152.5t-100 -406.5q0 -164 62 -238.5t198 -74.5q70 0 141 16l31 235h-142l27 224h580l-27 -224h-96l-58 -471q-236 -84 -506 -84 q-616 0 -616 596z" />
<glyph unicode="H" horiz-adv-x="1699" d="M37 0l29 250h145l113 915h-146l31 250h653l-31 -250h-124l-39 -319h469l41 319h-125l30 250h654l-31 -250h-145l-111 -915h143l-28 -250h-654l31 250h123l43 360h-469l-43 -360h125l-31 -250h-653z" />
<glyph unicode="I" horiz-adv-x="944" d="M88 0l31 250h143l111 915h-144l33 250h664l-31 -250h-139l-113 -915h139l-28 -250h-666z" />
<glyph unicode="J" horiz-adv-x="1001" d="M-98 -111q111 31 187.5 71t119.5 79t70.5 100.5t38 107.5t20.5 128l98 790h-198l28 250h754l-31 -250h-172l-96 -790q-41 -334 -218 -524.5t-544 -231.5z" />
<glyph unicode="K" horiz-adv-x="1562" d="M37 0l29 250h145l111 915h-144l31 246h647l-31 -246h-133l-39 -331l414 331h-102l28 246h615l-31 -246h-129l-387 -305l338 -608h110l-28 -252h-637l30 252h105l-211 383l-154 -121l-32 -264h123l-31 -250h-637z" />
<glyph unicode="L" horiz-adv-x="1359" d="M37 0l29 250h147l111 915h-144l31 248h674l-33 -248h-143l-113 -915h442l33 266h264l-61 -516h-1237z" />
<glyph unicode="M" horiz-adv-x="2072" d="M35 0l28 248h148l111 917h-146l31 248h622l99 -313q14 -43 86 -285l49 -166h10q23 47 72 137q131 254 172 328q57 104 158 299h632l-32 -248h-127q-78 -649 -113 -917h127l-29 -248h-612l29 248h114l82 676h-6l-67 -129q-39 -78 -121 -230l-172 -319h-310 q-12 33 -100 299l-117 379h-6l-82 -676h125l-31 -248h-624z" />
<glyph unicode="N" horiz-adv-x="1748" d="M35 0l28 248h140q20 180 62 521t48 396h-137l31 248h547l188 -383q29 -61 85 -180t79 -168l70 -143h8l78 626h-136l33 248h623q-29 -238 -31 -248h-135l-141 -1165h-375q-47 90 -131 257t-103 206q-41 90 -159 328q-45 90 -66 135h-4q-53 -424 -84 -678h135 q-23 -178 -29 -248h-624z" />
<glyph unicode="O" horiz-adv-x="1574" d="M129 592q0 371 200.5 611.5t567.5 240.5q311 0 465 -170t154 -457q0 -373 -204 -606.5t-562 -233.5q-307 0 -464 165t-157 450zM532 584q0 -336 242 -336q170 0 252 160.5t82 427.5q0 336 -231 335q-92 0 -161 -50t-108 -135t-57.5 -186t-18.5 -216z" />
<glyph unicode="P" horiz-adv-x="1361" d="M37 0l29 250h139l112 915h-139l31 250h717q453 0 452 -397q0 -211 -140 -355.5t-394 -144.5h-221l-35 -268h180l-29 -250h-702zM651 758h113q92 0 149.5 65.5t57.5 171.5q0 170 -162 170h-109z" />
<glyph unicode="Q" horiz-adv-x="1583" d="M129 592q0 371 200.5 611.5t567.5 240.5q311 0 465 -170t154 -457q0 -242 -88.5 -431t-251.5 -290l278 -82l-145 -290l-699 268q-242 35 -361.5 192.5t-119.5 407.5zM532 584q0 -336 242 -336q170 0 252 160.5t82 427.5q0 336 -231 335q-92 0 -161 -50t-108 -135 t-57.5 -186t-18.5 -216z" />
<glyph unicode="R" horiz-adv-x="1486" d="M45 0l29 250h133l110 915h-133l33 250h760q227 0 329.5 -104.5t102.5 -270.5q0 -133 -65.5 -247.5t-200.5 -167.5l129 -381l158 -23l4 -213q-117 -43 -291 -43q-100 0 -149.5 43t-78.5 142l-122 407h-172l-35 -307h131l-31 -250h-641zM651 793h135q90 0 152.5 54 t62.5 161q0 158 -155 157h-150z" />
<glyph unicode="S" horiz-adv-x="1335" d="M61 78l41 371h260l-18 -156q98 -39 231 -39q125 0 184.5 44t59.5 105q0 74 -86 113q-45 23 -241 76q-168 47 -251 133t-83 229q0 229 165.5 355.5t458.5 126.5q109 0 245 -23.5t224 -69.5l-45 -360h-260l17 150q-82 31 -187 30q-94 0 -149.5 -41t-55.5 -112 q0 -53 65.5 -88t190.5 -72q217 -61 322.5 -142t105.5 -249q0 -238 -175 -362t-505 -124q-319 1 -514 105z" />
<glyph unicode="T" horiz-adv-x="1380" d="M98 928l62 487h1304l-59 -487h-260l29 237h-203l-113 -915h164l-31 -250h-704l28 250h164l113 915h-203l-29 -237h-262z" />
<glyph unicode="U" horiz-adv-x="1589" d="M158 1165l30 250h607l-31 -250h-117l-82 -655q-3 -29 -3 -54q0 -208 222 -208q104 0 174 64.5t86 197.5l80 655h-116l32 250h605l-31 -250h-117l-78 -635q-35 -272 -191.5 -411t-465.5 -139q-573 0 -574 469q0 49 7 102l73 614h-110z" />
<glyph unicode="V" horiz-adv-x="1548" d="M119 1163l31 252h612l-31 -252h-121l92 -501l62 -359h8l146 354l210 506h-122l30 252h609l-31 -252h-105l-540 -1163h-482l-268 1163h-100z" />
<glyph unicode="W" horiz-adv-x="2254" d="M117 1163l33 252h630l-30 -252h-113l55 -467l39 -360h4l142 354l151 371l-18 102h-115l33 252h612l-31 -252h-129l90 -465l64 -317h4l119 340l155 442h-118l32 252h629l-31 -252h-116q-18 -51 -230.5 -578.5t-232.5 -584.5h-469l-80 428l-33 197h-8l-84 -199l-180 -426 h-490l-178 1163h-106z" />
<glyph unicode="X" horiz-adv-x="1519" d="M-18 0l30 252h97l417 508l-233 401h-156l31 254h696l-30 -254h-97l146 -256l221 258h-105l31 252h574l-31 -252h-103l-409 -463l274 -448h129l-28 -252h-693l31 252h94l-159 289l-234 -289h105l-29 -252h-569z" />
<glyph unicode="Y" horiz-adv-x="1456" d="M119 1163l31 252h595l-30 -252h-113l164 -393h8l258 393h-114l30 252h602l-32 -252h-99l-479 -651l-31 -262h150l-29 -250h-717l29 250h154l30 260l-311 653h-96z" />
<glyph unicode="Z" horiz-adv-x="1335" d="M4 0l31 246l805 921h-383l-31 -241h-262l61 489h1141l-29 -237l-811 -928h471l33 276h262l-63 -526h-1225z" />
<glyph unicode="[" horiz-adv-x="706" d="M47 -326q14 129 114.5 934t102.5 828h496l-25 -207h-186q-150 -1223 -168 -1360h186q-18 -174 -24 -195h-496z" />
<glyph unicode="\" horiz-adv-x="800" d="M131 1456h266l330 -1532h-264z" />
<glyph unicode="]" horiz-adv-x="706" d="M-4 -326q25 193 24 195h183l168 1360h-185q0 10 25 207h496l-215 -1762h-496z" />
<glyph unicode="^" horiz-adv-x="1036" d="M68 688l477 701h166l303 -701h-238l-178 426l-287 -426h-243z" />
<glyph unicode="_" horiz-adv-x="993" d="M-90 -319l22 182h994l-23 -182h-993z" />
<glyph unicode="`" horiz-adv-x="1198" d="M391 1450l189 184l301 -393l-117 -117z" />
<glyph unicode="a" horiz-adv-x="1345" d="M82 324q0 307 147.5 507.5t415.5 200.5q129 0 248 -63l43 59l283 -14q-78 -496 -109 -764q53 4 137 39l72 -174q-72 -63 -175.5 -106.5t-185.5 -43.5q-209 0 -208 164q0 33 10 80h-10q-158 -236 -375 -236q-137 0 -215 89.5t-78 261.5zM449 385q0 -78 26.5 -118t71.5 -40 q137 0 235 312l33 200q-70 23 -141 23q-113 0 -169 -116t-56 -261z" />
<glyph unicode="b" horiz-adv-x="1286" d="M51 1262l15 176q215 63 374 63q109 0 146 -39t37 -123q0 -41 -21.5 -219t-40.5 -291l10 -4q162 207 357 207q137 0 215 -90t78 -260q0 -309 -156 -509t-447 -200q-98 0 -236 29t-257 90l-21 39q92 694 134 1102zM492 266q68 -23 126 -22q80 0 135.5 60.5t77 140 t21.5 169.5q0 154 -102 154q-61 0 -124 -73.5t-108 -235.5z" />
<glyph unicode="c" horiz-adv-x="1058" d="M82 383q0 94 15.5 180t57.5 174t105.5 152.5t166.5 104.5t237 40q152 0 241 -37q100 -41 101 -125q0 -109 -72 -276q-72 10 -197 10q0 12 1 80t1 78q-23 8 -63 8q-102 0 -157.5 -92t-55.5 -242q0 -98 43 -144t133 -46q102 0 246 35l59 -226q-174 -80 -424 -80 q-242 0 -340 108t-98 298z" />
<glyph unicode="d" horiz-adv-x="1349" d="M82 324q0 309 149.5 507.5t419.5 198.5q90 0 195 -37q6 47 28 238l-196 31l12 176q217 63 377 63q109 0 147.5 -42t38.5 -126q0 -35 -24.5 -211t-62.5 -446t-58 -426q63 4 145 39l70 -172q-78 -70 -183.5 -111t-191.5 -41q-176 0 -188 150q-1 10 -1 20q0 32 5 74h-10 q-90 -135 -180.5 -185.5t-198.5 -50.5q-137 0 -215 89.5t-78 261.5zM446 385q0 -158 99 -158q141 0 239 312l31 200q-68 23 -139 23q-117 0 -173.5 -115t-56.5 -262z" />
<glyph unicode="e" horiz-adv-x="1112" d="M82 389q0 98 19.5 188.5t64.5 175.5t114.5 146.5t176 99t239.5 37.5q154 0 254.5 -74.5t100.5 -220.5q0 -324 -607 -354q0 -6 -1 -18.5t-1 -18.5q0 -59 35 -91t129 -32q123 0 301 60l64 -205q-188 -104 -457 -105q-131 0 -219 32t-133 92.5t-62.5 129t-17.5 158.5z M451 541q270 12 270 157q0 82 -78 82q-172 1 -192 -239z" />
<glyph unicode="f" horiz-adv-x="940" d="M-219 -412l57 236q86 -14 152 -14q80 0 127 53t65 196q37 272 76 666h-180q0 6 11 100.5t13 100.5l185 45l12 98q14 88 40 156.5t76 136.5t139 104.5t210 36.5q145 0 289 -47q-2 -8 -29 -120.5t-29 -123.5q-90 20 -166 21q-72 0 -117.5 -47t-60.5 -170q0 -2 -3 -28.5 t-3 -31.5h279l-29 -231h-279l-55 -541q-14 -131 -32.5 -219t-54.5 -175t-88 -136t-135 -80t-198 -31q-137 0 -272 45z" />
<glyph unicode="g" horiz-adv-x="1263" d="M76 -365l88 238q176 -61 323 -61q123 0 176.5 59t73.5 207l17 115q-2 2 -4 2q-4 2 -7 2q-160 -205 -360 -205q-137 0 -217 90t-80 260q0 305 153.5 495.5t446.5 190.5q295 -6 494 -106l18 -39q-66 -508 -98 -791q-6 -61 -13.5 -104t-26 -106.5t-44 -106.5t-69.5 -91.5 t-101.5 -78t-143.5 -49t-190 -19.5q-113 0 -236.5 29.5t-199.5 68.5zM451 406q0 -158 104 -158q61 0 125.5 75.5t110.5 241.5l24 174q-70 23 -133 23q-119 0 -175 -105.5t-56 -250.5z" />
<glyph unicode="h" horiz-adv-x="1400" d="M70 1260l16 176q217 63 377 63q109 0 147.5 -39t38.5 -119q0 -37 -20.5 -217t-40.5 -313l8 -4q84 117 189.5 172t191.5 55q131 0 187.5 -60.5t56.5 -187.5q0 -27 -9.5 -105.5t-25 -208.5t-25.5 -222q61 2 142 35l69 -172q-84 -72 -193.5 -111t-191.5 -39q-117 0 -162 48 t-45 143q0 16 4 57q55 406 56 451q0 94 -76 94q-57 0 -119.5 -70t-101.5 -211l-64 -475h-370q135 1106 147 1231z" />
<glyph unicode="i" horiz-adv-x="829" d="M100 795l11 176q217 63 360 63q100 0 138 -33.5t38 -105.5q0 -31 -14.5 -149.5t-37 -281.5t-28.5 -214q74 2 148 35l69 -172q-78 -70 -189.5 -110t-193.5 -40q-119 0 -167 49t-48 142q0 16 4 57l74 557zM262 1311q0 109 64.5 176t162.5 67q80 0 135.5 -57t55.5 -141 q0 -100 -62.5 -167t-162.5 -67q-80 0 -136.5 54.5t-56.5 134.5z" />
<glyph unicode="j" horiz-adv-x="735" d="M-119 -238q78 33 131.5 70t83 67.5t49 89t27.5 99.5t21 131l59 549l-164 27l12 176q215 63 355 63q102 0 142 -33.5t40 -105.5q0 -137 -72 -682q-39 -309 -178 -476t-440 -216zM252 1311q0 109 64.5 176t162.5 67q82 0 137.5 -57t55.5 -141q0 -100 -63.5 -167t-164.5 -67 q-80 0 -136 54.5t-56 134.5z" />
<glyph unicode="k" horiz-adv-x="1232" d="M55 1260l13 176q225 68 374 67q98 0 139.5 -42t41.5 -120q0 -57 -95 -653l9 -2q250 348 464 348q141 0 207 -174l-123 -135q-57 41 -112 41q-92 0 -215 -133q160 -313 235 -402q37 8 121 58l96 -135q-88 -100 -179 -146.5t-154 -46.5q-96 0 -165 81t-171 325 q-43 -66 -76 -136l-35 -231h-362l165 1233z" />
<glyph unicode="l" horiz-adv-x="753" d="M70 1262l12 176q217 63 373 63q102 0 143 -33.5t41 -107.5q0 -59 -25.5 -269t-63.5 -496t-46 -345q72 2 149 35l70 -172q-78 -70 -186.5 -110t-190.5 -40q-223 0 -223 191q0 16 4 57l129 1022z" />
<glyph unicode="m" horiz-adv-x="2007" d="M76 795l6 87t4 87q203 63 348 63q100 0 135 -33.5t35 -101.5q0 -39 -10 -131h10q170 268 389 268q109 0 164 -62.5t55 -174.5q0 -4 -1 -11.5t-1 -11.5h13q90 139 192.5 199.5t188.5 60.5q111 0 172 -65.5t61 -184.5q0 -18 -9 -97t-24.5 -211t-25.5 -226q53 2 133 35 l69 -170q-84 -72 -189 -111t-187 -39q-115 0 -159 44t-44 132q0 20 4 66q10 92 24.5 204.5t21.5 172t7 82.5q0 90 -67 90q-57 0 -110.5 -80t-90.5 -221q-57 -446 -57 -455h-365q76 586 76 664q0 90 -70 90q-55 0 -108.5 -79t-90.5 -220l-59 -455h-366q63 494 92 764z" />
<glyph unicode="n" horiz-adv-x="1427" d="M76 793l12 176q203 63 348 63q102 0 136 -34.5t34 -108.5q0 -49 -12 -123h10q94 147 209 207.5t211 60.5q113 0 173 -68.5t60 -191.5q0 -4 -59 -524q53 2 133 35q2 -2 35 -86t35 -86q-86 -72 -196.5 -110t-190.5 -38q-115 0 -154 43t-39 137q0 23 4 68q8 74 22.5 181.5 t23 177t8.5 92.5q0 90 -76 90q-63 0 -125 -78t-103 -221l-59 -455h-364q66 530 90 764z" />
<glyph unicode="o" horiz-adv-x="1239" d="M82 424q0 264 156.5 436t447.5 172q246 0 369 -123t123 -329q0 -258 -158 -429t-451 -171q-246 0 -366.5 119.5t-120.5 324.5zM461 408q0 -172 135 -172q102 0 150.5 103t48.5 251q0 178 -131 178q-106 0 -154.5 -110.5t-48.5 -249.5z" />
<glyph unicode="p" horiz-adv-x="1327" d="M-29 -432l29 242h117q12 109 55 458.5t59 493.5l-165 29l12 176q180 68 356 67q90 0 126 -38q34 -36 34 -103q0 -34 -12 -127h10q172 262 387 262q131 0 206 -92t75 -274q0 -301 -144.5 -496t-408.5 -195q-88 0 -195 37l-27 -198h150l-29 -242h-635zM537 262 q74 -25 139 -24q78 0 130 57t71.5 131t19.5 156q0 166 -98 166h-4q-141 0 -234 -310z" />
<glyph unicode="q" horiz-adv-x="1275" d="M82 322q0 307 157.5 507.5t448.5 200.5t498 -108l18 -39q-84 -621 -127 -1076h123l-24 -241h-623l27 241h125q29 268 45 367l-11 2q-164 -207 -360 -207q-137 0 -217 90.5t-80 262.5zM446 387q0 -158 105 -158q63 0 126.5 75t110.5 239l27 196q-63 23 -131 23 q-119 0 -178.5 -115t-59.5 -260z" />
<glyph unicode="r" horiz-adv-x="1064" d="M92 793q0 8 5 90t7 86q203 63 340 63q102 0 137 -35.5t35 -109.5q0 -31 -14 -142h8q61 172 135 230.5t162 58.5q82 0 131 -55t64 -139l-168 -207q-63 37 -135 37q-168 0 -240 -346l-41 -324h-364q16 123 39.5 299t38 286.5t20.5 178.5q-8 0 -79 13.5t-81 15.5z" />
<glyph unicode="s" horiz-adv-x="1122" d="M57 178q0 41 26 103.5t69 111.5l180 -8l-2 -147q66 -23 166 -23q156 0 155 74q0 10 -6 20t-20.5 21.5t-27.5 19.5t-36.5 20.5t-40 19.5t-46.5 20.5t-44 19.5q-170 76 -219 115q-78 66 -78 153q0 158 139.5 251t376.5 93q90 0 175 -15t156 -58t71 -109q0 -35 -35 -105.5 t-70 -113.5l-178 8l2 139q-43 16 -113 17q-125 0 -125 -70q0 -37 80 -77t175.5 -75.5t175 -107.5t79.5 -164q0 -154 -143 -244t-399 -90q-119 0 -215.5 19.5t-162 66.5t-65.5 115z" />
<glyph unicode="t" horiz-adv-x="931" d="M72 774l22 205l176 47l121 260l258 23l-35 -299h287q-25 -217 -29 -236h-284l-45 -358q-4 -33 -4 -49q0 -55 25.5 -79t86.5 -24q90 0 185 21l38 -250q-68 -27 -178 -42.5t-178 -15.5q-358 0 -358 299q0 49 6 93l49 405h-143z" />
<glyph unicode="u" horiz-adv-x="1413" d="M80 795l16 174q215 63 365 63q90 0 129 -40t39 -118q0 -29 -30 -252t-30 -270q0 -90 74 -90q57 0 116.5 74t100.5 227l60 445h354l-100 -760q51 2 141 35l69 -170q-80 -70 -183 -108t-187 -38q-104 0 -146.5 43t-42.5 127q0 12 1 37t1 35h-10q-160 -233 -393 -234 q-242 0 -242 218q0 8 1 37.5t3 48.5q2 20 15.5 124.5t30 228.5t18.5 136z" />
<glyph unicode="v" horiz-adv-x="1316" d="M29 877q199 158 352 157q92 0 133 -53t53 -172l60 -506h16q84 96 160 229.5t98 245.5l-133 -20l-35 164q197 127 359 127q184 0 184 -170q-2 -201 -197.5 -479.5t-400.5 -413.5h-363l-104 757l-131 -26z" />
<glyph unicode="w" horiz-adv-x="1845" d="M29 874q209 158 364 158q86 0 127 -50t49 -189q27 -414 31 -512h16q61 68 124 168t98 180q-10 98 -13 119l-53 -14q-37 -9 -57 -13l-51 160q199 152 337 151q88 0 121 -47t39 -164l27 -538h14q190 250 238 495l-115 -16l-33 160q193 125 342 125q70 0 119 -40t49 -133 q0 -201 -181 -480t-378 -406h-354l-19 297q-2 0 -6 2q-49 -88 -116.5 -177.5t-108.5 -121.5h-354q-6 70 -32 340t-42 415q-23 -4 -66 -14t-65 -14z" />
<glyph unicode="x" horiz-adv-x="1273" d="M35 164q0 8 1 22.5t1 20.5l393 305q-12 25 -50 99.5t-58 113.5l-158 -41q-8 16 -36 74.5t-44 89.5q203 180 385 180q39 0 68.5 -11t57.5 -45t41 -54.5t46 -83t47 -89.5q27 31 115 131.5t137 153.5h39q94 -98 186 -205l-4 -37q-94 -74 -352 -282l119 -234q68 14 147 62 l127 -152q-88 -121 -194.5 -170t-194.5 -49q-31 0 -56.5 6t-44 12.5t-40 28t-31.5 30.5t-31.5 46t-29 51.5t-33 66.5t-35.5 70q-176 -195 -301 -319q-4 0 -15.5 -1t-17.5 -1q-61 68 -184 211z" />
<glyph unicode="y" horiz-adv-x="1282" d="M-223 -264q0 27 2 41l135 80q86 -82 203 -82q197 0 346 137q-137 565 -219 825l-148 -28l-51 161q188 156 352 156q121 0 148 -98q68 -266 162 -729q74 104 118.5 269t44.5 296q-41 -4 -122 -16l-35 163q180 127 338 127q172 0 172 -229q0 -199 -104.5 -427 t-267.5 -415.5t-381 -312.5t-427 -125q-41 0 -82 9t-85 29.5t-71.5 64t-27.5 104.5z" />
<glyph unicode="z" horiz-adv-x="1144" d="M35 184l575 598h-241l-74 -174l-184 17l22 254q6 72 50 100.5t98 28.5h796l19 -172l-586 -613h315l101 207l164 -10l-37 -299q-10 -70 -58.5 -95.5t-101.5 -25.5h-836z" />
<glyph unicode="{" horiz-adv-x="739" d="M72 473l22 197q76 14 119 52t51 120l37 278q43 322 309 322h228l-27 -203h-72q-51 0 -79.5 -27.5t-37 -56.5t-14.5 -82l-35 -278q-20 -184 -180 -215v-7q150 -35 125 -243l-43 -336q-2 -33 -4 -63.5t18.5 -51t67.5 -20.5h86l-25 -195h-223q-141 0 -195.5 97.5 t-37.5 240.5l37 301q12 72 -21.5 118t-105.5 52z" />
<glyph unicode="|" horiz-adv-x="731" d="M264 -311v1771h250v-1771h-250z" />
<glyph unicode="}" horiz-adv-x="745" d="M-51 -336l26 203h72q51 0 80 27.5t37 56.5t14 82l37 325q20 184 180 215v7q-150 35 -125 243q8 55 20.5 144.5t20.5 144.5q2 33 4 63.5t-18.5 51t-67.5 20.5h-86l25 195h223q141 0 195.5 -97.5t38.5 -240.5l-35 -254q-12 -72 21.5 -118t105.5 -52l-23 -197 q-76 -14 -119 -52t-51 -120l-39 -325q-43 -322 -309 -322h-227z" />
<glyph unicode="~" d="M141 537q123 256 314 256q78 0 239.5 -45.5t233.5 -45.5l143 99l109 -94q-123 -262 -310 -263q-96 0 -260 46.5t-213 46.5l-145 -95z" />
<glyph unicode="&#xa1;" horiz-adv-x="655" d="M47 -461l62 498l98 530h272l-33 -530l-55 -498h-344zM197 848q10 76 66 129t138 53q80 0 125 -51t37 -123q-6 -78 -64.5 -131t-142.5 -53q-78 0 -121.5 51t-37.5 125z" />
<glyph unicode="&#xa2;" d="M170 383q0 84 12.5 162t45 159.5t82.5 144t131 111t186 64.5l24 190h221l-24 -186q92 -10 145 -31q100 -41 101 -125q0 -109 -72 -276q-72 10 -197 10q0 12 1 80t1 78q-23 8 -63 8q-102 0 -157.5 -92t-55.5 -242q0 -98 43 -144t133 -46q102 0 246 35l59 -226 q-111 -51 -309 -73l-18 -174h-226l23 174q-182 23 -257 126t-75 273z" />
<glyph unicode="&#xa3;" d="M70 0l18 236q125 96 162 301l12 67h-119l17 174h129l26 166q35 238 153 351.5t343 113.5q242 0 399 -84l-28 -346h-246l12 139q-66 18 -117 19q-78 0 -119.5 -50.5t-60.5 -162.5l-24 -146h266l-14 -174h-281l-12 -86q-33 -203 -123 -280h649l-18 -238h-1024z" />
<glyph unicode="&#xa4;" horiz-adv-x="1196" d="M131 281l133 131q-57 94 -57 213q0 117 57 215l-131 135l152 155l133 -133q98 59 217 59.5t217 -61.5l131 135l154 -155l-133 -133q57 -102 57 -217q0 -106 -60 -215l136 -129l-154 -158l-133 133q-90 -59 -215 -59q-123 0 -217 59l-133 -133zM426 625q0 -86 60.5 -146.5 t146.5 -60.5q84 0 145.5 60.5t61.5 146.5t-60.5 148.5t-146.5 62.5t-146.5 -61.5t-60.5 -149.5z" />
<glyph unicode="&#xa5;" d="M117 1128l30 244h533l-31 -244h-98l113 -391h6l204 391h-100l29 244h530l-28 -244h-91l-210 -364h170l-17 -121h-1007l14 121h162l-121 364h-88zM123 434l16 123h1006l-12 -123h-328l-27 -194h140l-29 -240h-641l28 240h140l22 194h-315z" />
<glyph unicode="&#xa6;" horiz-adv-x="731" d="M303 -311v796h250v-796h-250zM303 735v725h250v-725h-250z" />
<glyph unicode="&#xa7;" horiz-adv-x="1132" d="M96 -152l39 310h230l-19 -140q63 -20 135 -20q92 0 142.5 36t50.5 91q0 37 -41 68.5t-144 72.5q-80 33 -128 56.5t-101 61.5t-77.5 88t-24.5 116q0 172 164 286q-92 82 -93 205q0 180 139.5 273.5t354.5 93.5q102 0 202.5 -20.5t153.5 -49.5l-37 -303h-231l16 150 q-53 16 -122 16q-63 0 -104.5 -31.5t-41.5 -72.5q0 -92 209 -181q59 -25 97 -45t84 -56t68.5 -84t22.5 -110q0 -154 -163 -276q123 -90 122 -244q0 -160 -139 -258t-381 -98q-215 -1 -383 65zM442 641q0 -16 5.5 -28.5t18.5 -25t26.5 -21.5t39 -20t45 -19.5t54.5 -23 t57 -24.5q78 57 70 131q-4 45 -60.5 79t-179.5 83q-76 -51 -76 -131z" />
<glyph unicode="&#xa8;" horiz-adv-x="1202" d="M324 1298q8 72 61 122t121 50q66 0 107.5 -45t35.5 -114q-6 -72 -60 -123t-122 -51q-66 0 -107.5 46.5t-35.5 114.5zM752 1298q8 74 61 123t120.5 49t108.5 -45t33 -114q-4 -72 -57 -123t-125 -51q-66 0 -105.5 46.5t-35.5 114.5z" />
<glyph unicode="&#xa9;" horiz-adv-x="1785" d="M121 672q0 330 233.5 564t565 234t562 -233t230.5 -565q0 -330 -233.5 -564.5t-558.5 -234.5q-340 0 -569.5 232.5t-229.5 566.5zM270 672q0 -270 186.5 -459.5t463.5 -189.5q266 0 455.5 190t189.5 458.5t-188.5 459t-457 190.5t-459 -190.5t-190.5 -458.5zM465 655 q0 96 23.5 179.5t78 158t156.5 117.5t246 43q127 0 258 -39v-293h-168v129q-41 8 -82 8q-238 0 -238 -294q0 -160 65.5 -224.5t201.5 -64.5q109 0 213 24l36 -176q-129 -51 -319 -51q-471 0 -471 483z" />
<glyph unicode="&#xaa;" horiz-adv-x="929" d="M100 819q0 203 101.5 329t290.5 126q80 0 159 -37l27 37l209 -10q-47 -330 -68 -488q45 6 92 27l56 -123q-55 -47 -127 -77t-129 -30q-141 0 -142 123q0 4 1 13.5t1 15.5h-4q-111 -147 -254 -147q-98 0 -155.5 62t-57.5 179zM365 862q0 -102 61 -102q43 0 89 55t65 172 l14 84q-49 14 -88 14q-70 0 -105.5 -67.5t-35.5 -155.5z" />
<glyph unicode="&#xab;" horiz-adv-x="1079" d="M72 379l10 78l412 399l137 -104l-254 -334l168 -326l-166 -115zM504 379l10 78l410 399l137 -104l-252 -334l166 -326l-164 -115z" />
<glyph unicode="&#xac;" d="M231 520l25 211h864l-69 -565h-211l45 354h-654z" />
<glyph unicode="&#xad;" horiz-adv-x="825" d="M127 430l33 256h571l-33 -256h-571z" />
<glyph unicode="&#xae;" horiz-adv-x="1284" d="M141 944q0 233 156 392t395.5 159t393 -158.5t153.5 -392.5q0 -231 -154.5 -390t-392.5 -159q-236 0 -393.5 160t-157.5 389zM256 944q0 -184 121 -310t315 -126q203 0 319.5 125t116.5 311q0 182 -122.5 310t-313.5 128q-188 0 -312 -128t-124 -310zM424 668v106h59v375 h-59v108h328q109 0 157.5 -50t48.5 -130q0 -43 -23.5 -87t-68.5 -64l74 -154q45 0 70 -8l4 -94q-55 -16 -121 -17q-43 0 -63.5 17.5t-43.5 62.5l-75 164h-62v-123h56v-106h-281zM649 1004h56q80 0 79 75q0 72 -73 72h-62v-147z" />
<glyph unicode="&#xaf;" horiz-adv-x="1202" d="M328 1149l28 233h750l-31 -233h-747z" />
<glyph unicode="&#xb0;" horiz-adv-x="792" d="M131 1104q14 150 110.5 233.5t237.5 83.5q135 0 215 -89t74 -228q-6 -137 -105.5 -228.5t-238.5 -91.5q-137 0 -222 88.5t-71 231.5zM305 1102q-6 -63 31 -105.5t100 -42.5q66 0 111 40t47 108q4 68 -34 109.5t-103 41.5q-63 0 -105.5 -42.5t-46.5 -108.5z" />
<glyph unicode="&#xb1;" d="M168 0l25 207h864l-27 -207h-862zM238 584l26 211h326l39 297h211l-37 -297h323l-26 -211h-324l-35 -293h-213l35 293h-325z" />
<glyph unicode="&#xb2;" horiz-adv-x="745" d="M-6 729l18 168q16 12 93 65.5t118 84t98.5 80t86 90t30.5 77.5q0 66 -82 66q-94 0 -223 -66l-76 172q176 109 351 109q152 0 231.5 -60.5t79.5 -168.5q0 -195 -379 -424h172l6 61h201l-29 -254h-696z" />
<glyph unicode="&#xb3;" horiz-adv-x="745" d="M-27 788l76 175q131 -43 219 -43q70 0 118 23.5t48 70.5q0 68 -110 67q-37 0 -103 -10l-18 152q238 37 237 114q0 41 -69 41q-98 0 -240 -55l-59 174q195 78 360 78q143 0 210 -54.5t67 -138.5q0 -49 -38 -102t-100 -82q131 -47 131 -174q0 -131 -113.5 -218t-307.5 -87 q-197 -1 -308 69z" />
<glyph unicode="&#xb4;" horiz-adv-x="1202" d="M580 1231l350 395l166 -186l-406 -326z" />
<glyph unicode="&#xb5;" horiz-adv-x="1404" d="M-10 -432l24 237h115q63 586 115 961q-47 6 -170 29q6 53 14 174q217 63 367 63q166 0 166 -170q0 -31 -29 -248t-29 -262q0 -90 74 -90q59 0 117.5 74t97.5 227l59 445h357l-101 -760q51 2 142 35l67 -170q-80 -72 -183 -109t-185 -37q-113 0 -151 45t-38 142q0 6 1 20 t1 21h-10q-63 -102 -128 -134t-163 -32l-26 -224h127l-31 -237h-600z" />
<glyph unicode="&#x3bc;" horiz-adv-x="1404" d="M-10 -432l24 237h115q63 586 115 961q-47 6 -170 29q6 53 14 174q217 63 367 63q166 0 166 -170q0 -31 -29 -248t-29 -262q0 -90 74 -90q59 0 117.5 74t97.5 227l59 445h357l-101 -760q51 2 142 35l67 -170q-80 -72 -183 -109t-185 -37q-113 0 -151 45t-38 142q0 6 1 20 t1 21h-10q-63 -102 -128 -134t-163 -32l-26 -224h127l-31 -237h-600z" />
<glyph unicode="&#xb6;" horiz-adv-x="1353" d="M152 950q0 215 139 361.5t352 146.5h774l-31 -248h-133l-202 -1654h-246l205 1654h-111l-203 -1654h-430l27 225h182l96 772h-34q-176 0 -280.5 106.5t-104.5 290.5z" />
<glyph unicode="&#xb7;" horiz-adv-x="604" d="M119 545q0 90 64.5 151.5t148.5 61.5q70 0 117 -49.5t47 -122.5q0 -90 -63.5 -152.5t-147.5 -62.5q-70 0 -118 50t-48 124z" />
<glyph unicode="&#xb8;" horiz-adv-x="1050" d="M240 -408q115 10 183.5 41t68.5 74q0 53 -130 53q-6 0 -18 -1t-18 -1l-31 62q45 55 129 152.5t115 131.5l88 -57l-127 -149q186 -31 186 -172q0 -41 -20.5 -83t-66.5 -83t-137 -68t-214 -29z" />
<glyph unicode="&#xb9;" horiz-adv-x="745" d="M37 729l22 193h172l50 413q-168 -18 -177 -20l-8 166l256 84h232l-78 -643h174l-23 -193h-620z" />
<glyph unicode="&#xba;" horiz-adv-x="856" d="M111 879q0 174 105.5 286.5t305.5 112.5q172 0 260 -81t88 -216q0 -170 -106.5 -283.5t-308.5 -113.5q-170 0 -257 80t-87 215zM385 868q4 -100 84 -100q68 0 96.5 63.5t26.5 155.5q0 104 -82 105q-68 0 -97.5 -68t-27.5 -156z" />
<glyph unicode="&#xbb;" horiz-adv-x="1079" d="M35 92l248 326l-170 334l163 104l314 -399l-10 -78l-404 -402zM467 92l246 326l-170 334l166 104l311 -399l-10 -78l-406 -402z" />
<glyph unicode="&#xbc;" horiz-adv-x="1884" d="M145 545l23 192h172l49 414q-168 -18 -176 -21l-8 166l256 84h231l-78 -643h174l-22 -192h-621zM520 -39l848 1501h213l-850 -1501h-211zM1061 240q0 4 7 64.5t7 66.5q33 37 99.5 113.5t125 148.5t111.5 136.5t57 68.5h285l-53 -439h127l-19 -159h-127l-8 -72h78 l-16 -160h-410l21 160h73l8 72h-366zM1296 399h152l29 207h-2q-4 -4 -82.5 -96.5t-96.5 -110.5z" />
<glyph unicode="&#xbd;" horiz-adv-x="1884" d="M119 545l22 192h172l49 414q-168 -18 -176 -21l-8 166l256 84h232l-78 -643h174l-23 -192h-620zM483 -39l848 1501h213l-850 -1501h-211zM1118 2l19 168q18 12 96 66.5t118 85t97 79t86 89t31 77.5q0 66 -82 66q-98 0 -226 -68l-77 174q178 109 352 109 q152 0 231.5 -60.5t79.5 -171.5q0 -193 -379 -421h172q6 25 6 59h201l-28 -252h-697z" />
<glyph unicode="&#xbe;" horiz-adv-x="1884" d="M123 604l76 174q131 -43 219 -43q70 0 118 23.5t48 70.5q0 68 -111 68q-37 0 -102 -10l-19 151q238 37 238 115q0 41 -70 41q-98 0 -239 -55l-60 174q195 78 361 78q143 0 209.5 -54.5t66.5 -138.5q0 -49 -38 -102.5t-99 -81.5q131 -47 131 -174q0 -131 -113.5 -218 t-308.5 -87q-196 -1 -307 69zM510 -39l848 1501h213l-850 -1501h-211zM1085 240q0 4 7.5 64.5t7.5 66.5q33 37 99.5 113.5t124.5 148.5t111.5 136.5t57.5 68.5h285l-54 -439h127l-18 -159h-127l-8 -72h78l-17 -160h-409l20 160h74l8 72h-367zM1321 399h152l28 207h-2 q-4 -4 -82 -96.5t-96 -110.5z" />
<glyph unicode="&#xbf;" horiz-adv-x="1075" d="M47 -141q2 186 170 323q51 41 126 96.5t100.5 77t48 62.5t22.5 94v43l289 33q8 -55 8 -111q0 -43 -7 -80t-26 -70l-30 -57q-12 -23 -46 -54.5t-48.5 -43.5t-57.5 -46t-55 -44q-98 -80 -99 -152q0 -119 146 -118q49 0 125 14l18 154h248l-43 -361q-231 -84 -471 -84 q-205 0 -311.5 86t-106.5 238zM477 827q0 84 60.5 139.5t142.5 55.5q68 0 114 -44t46 -108q0 -80 -56.5 -138t-144.5 -58q-70 0 -116 43.5t-46 109.5z" />
<glyph unicode="&#xc0;" horiz-adv-x="1576" d="M-12 0l28 250h111l561 1165h471l250 -1165h109l-31 -250h-596l29 250h116l-28 143h-449l-63 -143h118l-28 -250h-598zM573 1798l179 207l331 -358l-104 -127zM666 631h301l-43 235l-39 246h-8l-103 -238z" />
<glyph unicode="&#xc1;" horiz-adv-x="1576" d="M-12 0l28 250h111l561 1165h471l250 -1165h109l-31 -250h-596l29 250h116l-28 143h-449l-63 -143h118l-28 -250h-598zM666 631h301l-43 235l-39 246h-8l-103 -238zM821 1647l402 331l141 -206l-455 -259z" />
<glyph unicode="&#xc2;" horiz-adv-x="1576" d="M-12 0l28 250h111l561 1165h471l250 -1165h109l-31 -250h-596l29 250h116l-28 143h-449l-63 -143h118l-28 -250h-598zM500 1610l350 319h227l279 -317l-101 -107l-317 207l-365 -205zM666 631h301l-43 235l-39 246h-8l-103 -238z" />
<glyph unicode="&#xc3;" horiz-adv-x="1576" d="M-12 0l28 250h111l561 1165h471l250 -1165h109l-31 -250h-596l29 250h116l-28 143h-449l-63 -143h118l-28 -250h-598zM518 1622q98 215 254 215q66 0 196 -37t185 -37l121 82l86 -78q-96 -223 -250 -223q-80 0 -212 40t-171 40l-117 -80zM666 631h301l-43 235l-39 246h-8 l-103 -238z" />
<glyph unicode="&#xc4;" horiz-adv-x="1576" d="M-12 0l28 250h111l561 1165h471l250 -1165h109l-31 -250h-596l29 250h116l-28 143h-449l-63 -143h118l-28 -250h-598zM598 1667q6 68 57.5 114t115 46t102 -44t32.5 -110q-8 -68 -57 -114t-115 -46q-63 0 -102 44t-33 110zM666 631h301l-43 235l-39 246h-8l-103 -238z M1006 1667q6 68 56 114t116 46q63 0 102 -44t31 -110q-6 -68 -56.5 -114t-115.5 -46q-63 0 -102 44t-31 110z" />
<glyph unicode="&#xc5;" horiz-adv-x="1576" d="M-12 0l28 250h111l561 1165h471l250 -1165h109l-31 -250h-596l29 250h116l-28 143h-449l-63 -143h118l-28 -250h-598zM666 631h301l-43 235l-39 246h-8l-103 -238zM678 1767q14 113 103 193t204 80q113 0 178.5 -79t50.5 -194q-14 -113 -101 -191.5t-195 -78.5 q-113 0 -183.5 79.5t-56.5 190.5zM842 1761q-6 -43 20.5 -75.5t75.5 -32.5q45 0 77 32.5t36 75.5q6 47 -16.5 80t-69.5 33t-83 -33t-40 -80z" />
<glyph unicode="&#xc6;" horiz-adv-x="2162" d="M14 0l17 248h96l754 1163h1243l-29 -479h-262l12 233h-350l-18 -323l307 6l-17 -250l-307 8l-20 -358h389l16 250h264l-28 -498h-1182l16 248h146l8 155h-442l-103 -155h105l-17 -248h-598zM764 641h317l35 514h-12z" />
<glyph unicode="&#xc7;" horiz-adv-x="1327" d="M129 571q0 135 19.5 251t75 235t142.5 201.5t231 135t333 52.5q203 0 385 -57l-55 -455h-265l23 199q-57 14 -107 14q-193 0 -283.5 -142.5t-90.5 -390.5q0 -180 80.5 -247.5t256.5 -67.5q133 0 308 39l45 -281q-197 -72 -451 -80l-96 -112q186 -31 186 -172 q0 -41 -20.5 -83t-66.5 -83t-137 -67.5t-214 -28.5l-8 129q115 10 183.5 40.5t68.5 73.5q0 53 -129 54q-6 0 -18.5 -1t-18.5 -1l-31 61q55 68 166 195q-281 25 -396.5 180t-115.5 409z" />
<glyph unicode="&#xc8;" horiz-adv-x="1417" d="M37 0l29 250h143l110 915h-139l31 248h1225l-60 -481h-262l29 233h-438l-41 -323l372 8l-26 -246l-375 6l-43 -360h473l31 250h264l-60 -500h-1263zM569 1798l179 207l331 -358l-104 -127z" />
<glyph unicode="&#xc9;" horiz-adv-x="1417" d="M37 0l29 250h143l110 915h-139l31 248h1225l-60 -481h-262l29 233h-438l-41 -323l372 8l-26 -246l-375 6l-43 -360h473l31 250h264l-60 -500h-1263zM713 1647l401 331l141 -206l-454 -259z" />
<glyph unicode="&#xca;" horiz-adv-x="1417" d="M37 0l29 250h143l110 915h-139l31 248h1225l-60 -481h-262l29 233h-438l-41 -323l372 8l-26 -246l-375 6l-43 -360h473l31 250h264l-60 -500h-1263zM455 1610l350 319h227l279 -317l-101 -107l-317 207l-365 -205z" />
<glyph unicode="&#xcb;" horiz-adv-x="1417" d="M37 0l29 250h143l110 915h-139l31 248h1225l-60 -481h-262l29 233h-438l-41 -323l372 8l-26 -246l-375 6l-43 -360h473l31 250h264l-60 -500h-1263zM545 1667q6 68 57 114t114.5 46t102.5 -44t33 -110q-8 -68 -57.5 -114t-114.5 -46q-63 0 -102 44t-33 110zM952 1667 q6 68 56.5 114t115.5 46q63 0 102.5 -44t30.5 -110q-6 -68 -56 -114t-116 -46q-63 0 -102 44t-31 110z" />
<glyph unicode="&#xcc;" horiz-adv-x="944" d="M88 0l31 250h143l111 915h-144l33 250h664l-31 -250h-139l-113 -915h139l-28 -250h-666zM240 1798l178 207l332 -358l-105 -127z" />
<glyph unicode="&#xcd;" horiz-adv-x="944" d="M88 0l31 250h143l111 915h-144l33 250h664l-31 -250h-139l-113 -915h139l-28 -250h-666zM502 1647l401 331l141 -206l-454 -259z" />
<glyph unicode="&#xce;" horiz-adv-x="944" d="M88 0l31 250h143l111 915h-144l33 250h664l-31 -250h-139l-113 -915h139l-28 -250h-666zM193 1610l350 319h227l279 -317l-101 -107l-317 207l-365 -205z" />
<glyph unicode="&#xcf;" horiz-adv-x="944" d="M88 0l31 250h143l111 915h-144l33 250h664l-31 -250h-139l-113 -915h139l-28 -250h-666zM266 1667q6 68 57.5 114t115 46t102.5 -44t32 -110q-8 -68 -57 -114t-115 -46q-63 0 -102 44t-33 110zM674 1667q6 68 56 114t116 46q63 0 102 -44t31 -110q-6 -68 -56.5 -114 t-115.5 -46q-63 0 -102 44t-31 110z" />
<glyph unicode="&#xd0;" horiz-adv-x="1556" d="M37 0l29 250h149l47 391h-139l22 160h136l47 364h-142l33 250h688q590 0 590 -596q0 -168 -42 -311t-128 -260t-233.5 -182.5t-341.5 -65.5h-715zM600 250h127q154 0 258.5 142.5t104.5 422.5q0 350 -259 350h-118l-45 -364h188l-20 -160h-189z" />
<glyph unicode="&#xd1;" horiz-adv-x="1748" d="M35 0l28 248h140q20 180 62 521t48 396h-137l31 248h547l188 -383q29 -61 85 -180t79 -168l70 -143h8l78 626h-136l33 248h623q-29 -238 -31 -248h-135l-141 -1165h-375q-47 90 -131 257t-103 206q-41 90 -159 328q-45 90 -66 135h-4q-53 -424 -84 -678h135 q-23 -178 -29 -248h-624zM582 1645q98 215 254 215q66 0 195.5 -37t185.5 -37l120 82l86 -78q-96 -223 -249 -223q-80 0 -212.5 40t-170.5 40l-117 -80z" />
<glyph unicode="&#xd2;" horiz-adv-x="1574" d="M129 592q0 371 200.5 611.5t567.5 240.5q311 0 465 -170t154 -457q0 -373 -204 -606.5t-562 -233.5q-307 0 -464 165t-157 450zM532 584q0 -336 242 -336q170 0 252 160.5t82 427.5q0 336 -231 335q-92 0 -161 -50t-108 -135t-57.5 -186t-18.5 -216zM553 1798l178 207 l332 -358l-105 -127z" />
<glyph unicode="&#xd3;" horiz-adv-x="1574" d="M129 592q0 371 200.5 611.5t567.5 240.5q311 0 465 -170t154 -457q0 -373 -204 -606.5t-562 -233.5q-307 0 -464 165t-157 450zM532 584q0 -336 242 -336q170 0 252 160.5t82 427.5q0 336 -231 335q-92 0 -161 -50t-108 -135t-57.5 -186t-18.5 -216zM819 1647l402 331 l141 -206l-455 -259z" />
<glyph unicode="&#xd4;" horiz-adv-x="1574" d="M129 592q0 371 200.5 611.5t567.5 240.5q311 0 465 -170t154 -457q0 -373 -204 -606.5t-562 -233.5q-307 0 -464 165t-157 450zM514 1610l350 319h228l278 -317l-100 -107l-318 207l-364 -205zM532 584q0 -336 242 -336q170 0 252 160.5t82 427.5q0 336 -231 335 q-92 0 -161 -50t-108 -135t-57.5 -186t-18.5 -216z" />
<glyph unicode="&#xd5;" horiz-adv-x="1574" d="M129 592q0 371 200.5 611.5t567.5 240.5q311 0 465 -170t154 -457q0 -373 -204 -606.5t-562 -233.5q-307 0 -464 165t-157 450zM528 1649q98 215 254 215q66 0 196 -37t185 -37l121 82l86 -78q-96 -223 -250 -223q-80 0 -212 40t-171 40l-116 -80zM532 584 q0 -336 242 -336q170 0 252 160.5t82 427.5q0 336 -231 335q-92 0 -161 -50t-108 -135t-57.5 -186t-18.5 -216z" />
<glyph unicode="&#xd6;" horiz-adv-x="1574" d="M129 592q0 371 200.5 611.5t567.5 240.5q311 0 465 -170t154 -457q0 -373 -204 -606.5t-562 -233.5q-307 0 -464 165t-157 450zM532 584q0 -336 242 -336q170 0 252 160.5t82 427.5q0 336 -231 335q-92 0 -161 -50t-108 -135t-57.5 -186t-18.5 -216zM594 1667 q6 68 57 114t114.5 46t102.5 -44t33 -110q-8 -68 -57 -114t-115 -46q-63 0 -102 44t-33 110zM1001 1667q6 68 56.5 114t116.5 46q63 0 102 -44t31 -110q-6 -68 -56.5 -114t-115.5 -46q-63 0 -102.5 44t-31.5 110z" />
<glyph unicode="&#xd7;" d="M233 362l283 259l-217 258l164 149l215 -258l276 254l131 -156l-276 -252l215 -254l-162 -151l-217 256l-280 -258z" />
<glyph unicode="&#xd8;" horiz-adv-x="1574" d="M41 -16q86 82 201 206q-113 156 -113 400q0 375 200.5 613.5t567.5 238.5q266 0 420 -131l125 131h160l-207 -213q119 -154 118 -412q0 -373 -203.5 -605t-561.5 -232q-283 0 -437 135l-127 -131h-143zM532 551q0 -2 2.5 -24.5t4.5 -32.5q143 150 530 561 q-57 117 -192 116q-98 0 -169 -54t-107 -147t-52.5 -195.5t-16.5 -223.5zM565 371q57 -125 207 -125q115 0 192.5 80t110.5 208t33 302q0 55 -10 94z" />
<glyph unicode="&#xd9;" horiz-adv-x="1589" d="M158 1165l30 250h607l-31 -250h-117l-82 -655q-31 -262 219 -262q104 0 174 64.5t86 197.5l80 655h-116l32 250h605l-31 -250h-117l-78 -635q-35 -272 -191.5 -411t-465.5 -139q-633 0 -567 571l73 614h-110zM563 1798l178 207l332 -358l-104 -127z" />
<glyph unicode="&#xda;" horiz-adv-x="1589" d="M158 1165l30 250h607l-31 -250h-117l-82 -655q-31 -262 219 -262q104 0 174 64.5t86 197.5l80 655h-116l32 250h605l-31 -250h-117l-78 -635q-35 -272 -191.5 -411t-465.5 -139q-633 0 -567 571l73 614h-110zM809 1647l401 331l142 -206l-455 -259z" />
<glyph unicode="&#xdb;" horiz-adv-x="1589" d="M158 1165l30 250h607l-31 -250h-117l-82 -655q-31 -262 219 -262q104 0 174 64.5t86 197.5l80 655h-116l32 250h605l-31 -250h-117l-78 -635q-35 -272 -191.5 -411t-465.5 -139q-633 0 -567 571l73 614h-110zM502 1608l364 313h236l289 -311l-103 -105l-330 203 l-378 -201z" />
<glyph unicode="&#xdc;" horiz-adv-x="1589" d="M158 1165l30 250h607l-31 -250h-117l-82 -655q-31 -262 219 -262q104 0 174 64.5t86 197.5l80 655h-116l32 250h605l-31 -250h-117l-78 -635q-35 -272 -191.5 -411t-465.5 -139q-633 0 -567 571l73 614h-110zM596 1667q6 68 57.5 114t114.5 46t102 -44t33 -110 q-8 -68 -57 -114t-115 -46q-63 0 -102 44t-33 110zM1004 1667q6 68 56 114t116 46q63 0 102 -44t31 -110q-6 -68 -56.5 -114t-115.5 -46q-63 0 -102 44t-31 110z" />
<glyph unicode="&#xdd;" horiz-adv-x="1456" d="M119 1163l31 252h595l-30 -252h-113l164 -393h8l258 393h-114l30 252h602l-32 -252h-99l-479 -651l-31 -262h150l-29 -250h-717l29 250h154l30 260l-311 653h-96zM731 1645l402 331l141 -207l-455 -258z" />
<glyph unicode="&#xde;" horiz-adv-x="1361" d="M33 0l28 227h146l115 947h-148l31 241h665l-30 -241h-135l-11 -84h195q248 0 357.5 -86t109.5 -252q0 -186 -139.5 -304t-391.5 -116l-223 2l-14 -107h137l-27 -227h-665zM627 541h118q94 0 151.5 51t57.5 145q0 150 -174 150h-112z" />
<glyph unicode="&#xdf;" horiz-adv-x="1449" d="M-244 -410l58 236q96 -16 149 -16q121 0 158 114.5t88 579.5q18 156 29 248l-132 -2q4 33 12.5 96t10.5 96h125q2 10 6 52t8 77t19.5 89t38 97t66.5 89.5t100.5 78t142.5 52t192 20.5q119 0 206 -28.5t131 -74.5t63.5 -92.5t19.5 -93.5q0 -70 -38 -134t-85 -103t-85 -79 t-38 -65q0 -29 37 -67.5t89.5 -81.5t104.5 -93t89 -120t37 -143q0 -160 -126 -254.5t-321 -94.5q-141 0 -305 45l68 234q109 -33 184 -33q53 0 87 21.5t34 64.5q0 41 -29.5 87t-71.5 89t-83 89t-71 105.5t-30 121.5q0 70 35 127t78 88.5t78 69.5t35 75t-29 61.5t-88 24.5 q-80 0 -123 -49t-51 -129l-97 -868q-14 -133 -31.5 -221.5t-52 -177.5t-87 -139t-136.5 -82t-198 -32q-130 0 -271 45z" />
<glyph unicode="&#xe0;" horiz-adv-x="1345" d="M82 324q0 307 147.5 507.5t415.5 200.5q129 0 248 -63l43 59l283 -14q-78 -496 -109 -764q53 4 137 39l72 -174q-72 -63 -175.5 -106.5t-185.5 -43.5q-209 0 -208 164q0 33 10 80h-10q-158 -236 -375 -236q-137 0 -215 89.5t-78 261.5zM397 1450l189 184l301 -393 l-117 -117zM449 385q0 -78 26.5 -118t71.5 -40q137 0 235 312l33 200q-70 23 -141 23q-113 0 -169 -116t-56 -261z" />
<glyph unicode="&#xe1;" horiz-adv-x="1345" d="M82 324q0 307 147.5 507.5t415.5 200.5q129 0 248 -63l43 59l283 -14q-78 -496 -109 -764q53 4 137 39l72 -174q-72 -63 -175.5 -106.5t-185.5 -43.5q-209 0 -208 164q0 33 10 80h-10q-158 -236 -375 -236q-137 0 -215 89.5t-78 261.5zM449 385q0 -78 26.5 -118t71.5 -40 q137 0 235 312l33 200q-70 23 -141 23q-113 0 -169 -116t-56 -261zM588 1231l350 395l166 -186l-406 -326z" />
<glyph unicode="&#xe2;" horiz-adv-x="1345" d="M82 324q0 307 147.5 507.5t415.5 200.5q129 0 248 -63l43 59l283 -14q-78 -496 -109 -764q53 4 137 39l72 -174q-72 -63 -175.5 -106.5t-185.5 -43.5q-209 0 -208 164q0 33 10 80h-10q-158 -236 -375 -236q-137 0 -215 89.5t-78 261.5zM293 1202l348 318h229l277 -318 l-100 -106l-318 209l-362 -205zM449 385q0 -78 26.5 -118t71.5 -40q137 0 235 312l33 200q-70 23 -141 23q-113 0 -169 -116t-56 -261z" />
<glyph unicode="&#xe3;" horiz-adv-x="1345" d="M82 324q0 307 147.5 507.5t415.5 200.5q129 0 248 -63l43 59l283 -14q-78 -496 -109 -764q53 4 137 39l72 -174q-72 -63 -175.5 -106.5t-185.5 -43.5q-209 0 -208 164q0 33 10 80h-10q-158 -236 -375 -236q-137 0 -215 89.5t-78 261.5zM313 1247q98 215 254 215 q66 0 196 -36.5t185 -36.5l121 81l86 -77q-96 -223 -250 -224q-80 0 -212 40t-171 40l-116 -80zM449 385q0 -78 26.5 -118t71.5 -40q137 0 235 312l33 200q-70 23 -141 23q-113 0 -169 -116t-56 -261z" />
<glyph unicode="&#xe4;" horiz-adv-x="1345" d="M82 324q0 307 147.5 507.5t415.5 200.5q129 0 248 -63l43 59l283 -14q-78 -496 -109 -764q53 4 137 39l72 -174q-72 -63 -175.5 -106.5t-185.5 -43.5q-209 0 -208 164q0 33 10 80h-10q-158 -236 -375 -236q-137 0 -215 89.5t-78 261.5zM346 1298q8 72 61.5 122t120.5 50 q66 0 108 -45t36 -114q-6 -72 -60.5 -123t-122.5 -51q-66 0 -107.5 46.5t-35.5 114.5zM449 385q0 -78 26.5 -118t71.5 -40q137 0 235 312l33 200q-70 23 -141 23q-113 0 -169 -116t-56 -261zM774 1298q8 74 61.5 123t121 49t108.5 -45t33 -114q-4 -72 -57.5 -123t-125.5 -51 q-66 0 -105.5 46.5t-35.5 114.5z" />
<glyph unicode="&#xe5;" horiz-adv-x="1345" d="M82 324q0 307 147.5 507.5t415.5 200.5q129 0 248 -63l43 59l283 -14q-78 -496 -109 -764q53 4 137 39l72 -174q-72 -63 -175.5 -106.5t-185.5 -43.5q-209 0 -208 164q0 33 10 80h-10q-158 -236 -375 -236q-137 0 -215 89.5t-78 261.5zM449 385q0 -78 26.5 -118t71.5 -40 q137 0 235 312l33 200q-70 23 -141 23q-113 0 -169 -116t-56 -261zM485 1401q14 113 103.5 192.5t204.5 79.5q113 0 178 -78.5t51 -193.5q-14 -113 -101 -192t-196 -79q-113 0 -183.5 80t-56.5 191zM649 1395q-6 -43 20.5 -76t75.5 -33q45 0 77 33t36 76q6 47 -16.5 79.5 t-69.5 32.5t-83 -32.5t-40 -79.5z" />
<glyph unicode="&#xe6;" horiz-adv-x="1767" d="M74 211q0 55 10 100t52 100.5t111.5 90.5t200 55.5t306.5 11.5q0 6 2 36t2 34q0 72 -40 100.5t-140 28.5q-156 0 -312 -41l-45 223q201 82 451 82q117 0 188.5 -27.5t106.5 -113.5q129 145 387 145q154 0 253 -74.5t99 -220.5q0 -311 -606 -340q0 -6 -1 -22.5t-1 -24.5 q0 -63 34.5 -95t129.5 -32q121 0 303 60l63 -205q-188 -104 -459 -105q-262 0 -360 144q-100 -76 -223 -116t-226 -40q-286 0 -286 246zM471 276q0 -84 86 -83q111 0 186 77q-6 45 -6 99v49q-156 -2 -211 -37t-55 -105zM1106 553q276 6 276 145q0 82 -84 82 q-86 0 -136 -61.5t-56 -165.5z" />
<glyph unicode="&#xe7;" horiz-adv-x="1058" d="M82 383q0 94 15.5 180t57.5 174t105.5 152.5t166.5 104.5t237 40q152 0 241 -37q100 -41 101 -125q0 -109 -72 -276q-72 10 -197 10q0 12 1 80t1 78q-23 8 -63 8q-102 0 -157.5 -92t-55.5 -242q0 -98 43 -144t133 -46q102 0 246 35l59 -226q-135 -63 -362 -77 q-35 -39 -70 -82q186 -31 186 -172q0 -41 -20.5 -83t-66.5 -83t-137 -68t-214 -29l-8 129q115 10 183.5 41t68.5 74q0 53 -129 53q-6 0 -18.5 -1t-18.5 -1l-31 62q27 33 79 94t58 68q-201 16 -281.5 120.5t-80.5 280.5z" />
<glyph unicode="&#xe8;" horiz-adv-x="1112" d="M82 389q0 98 19.5 188.5t64.5 175.5t114.5 146.5t176 99t239.5 37.5q154 0 254.5 -74.5t100.5 -220.5q0 -324 -607 -354q0 -6 -1 -18.5t-1 -18.5q0 -59 35 -91t129 -32q123 0 301 60l64 -205q-188 -104 -457 -105q-131 0 -219 32t-133 92.5t-62.5 129t-17.5 158.5z M342 1450l188 184l301 -393l-116 -117zM451 541q270 12 270 157q0 82 -78 82q-172 1 -192 -239z" />
<glyph unicode="&#xe9;" horiz-adv-x="1112" d="M82 389q0 98 19.5 188.5t64.5 175.5t114.5 146.5t176 99t239.5 37.5q154 0 254.5 -74.5t100.5 -220.5q0 -324 -607 -354q0 -6 -1 -18.5t-1 -18.5q0 -59 35 -91t129 -32q123 0 301 60l64 -205q-188 -104 -457 -105q-131 0 -219 32t-133 92.5t-62.5 129t-17.5 158.5z M451 541q270 12 270 157q0 82 -78 82q-172 1 -192 -239zM528 1231l351 395l165 -186l-405 -326z" />
<glyph unicode="&#xea;" horiz-adv-x="1112" d="M82 389q0 98 19.5 188.5t64.5 175.5t114.5 146.5t176 99t239.5 37.5q154 0 254.5 -74.5t100.5 -220.5q0 -324 -607 -354q0 -6 -1 -18.5t-1 -18.5q0 -59 35 -91t129 -32q123 0 301 60l64 -205q-188 -104 -457 -105q-131 0 -219 32t-133 92.5t-62.5 129t-17.5 158.5z M227 1202l348 318h230l276 -318l-100 -106l-317 209l-363 -205zM451 541q270 12 270 157q0 82 -78 82q-172 1 -192 -239z" />
<glyph unicode="&#xeb;" horiz-adv-x="1112" d="M82 389q0 98 19.5 188.5t64.5 175.5t114.5 146.5t176 99t239.5 37.5q154 0 254.5 -74.5t100.5 -220.5q0 -324 -607 -354q0 -6 -1 -18.5t-1 -18.5q0 -59 35 -91t129 -32q123 0 301 60l64 -205q-188 -104 -457 -105q-131 0 -219 32t-133 92.5t-62.5 129t-17.5 158.5z M307 1298q8 72 61.5 122t120.5 50q66 0 108 -45t36 -114q-6 -72 -60.5 -123t-121.5 -51q-66 0 -108 46.5t-36 114.5zM451 541q270 12 270 157q0 82 -78 82q-172 1 -192 -239zM735 1298q8 74 61.5 123t121 49t108.5 -45t33 -114q-4 -72 -57.5 -123t-124.5 -51 q-66 0 -106 46.5t-36 114.5z" />
<glyph unicode="&#xec;" horiz-adv-x="829" d="M100 795l11 176q217 63 360 63q100 0 138 -33.5t38 -105.5q0 -31 -14.5 -149.5t-37 -281.5t-28.5 -214q74 2 148 35l69 -172q-78 -70 -189.5 -110t-193.5 -40q-119 0 -167 49t-48 142q0 18 4 55l74 559zM117 1450l188 184l301 -393l-117 -117z" />
<glyph unicode="&#xed;" horiz-adv-x="843" d="M100 795l11 176q217 63 360 63q100 0 138 -33.5t38 -105.5q0 -31 -14.5 -149.5t-37 -281.5t-28.5 -214q74 2 148 35l69 -172q-78 -70 -189.5 -110t-193.5 -40q-119 0 -167 49t-48 142q0 18 4 55l74 559zM348 1231l350 395l166 -186l-405 -326z" />
<glyph unicode="&#xee;" horiz-adv-x="849" d="M16 1202l349 318h229l276 -318l-100 -106l-317 209l-363 -205zM100 795l11 176q217 63 360 63q100 0 138 -33.5t38 -105.5q0 -31 -14.5 -149.5t-37 -281.5t-28.5 -214q74 2 148 35l69 -172q-78 -70 -189.5 -110t-193.5 -40q-119 0 -167 49t-48 142q0 18 4 55l74 559z" />
<glyph unicode="&#xef;" horiz-adv-x="829" d="M70 1298q8 72 61 122t121 50q66 0 107.5 -45t35.5 -114q-6 -72 -60 -123t-122 -51q-66 0 -107.5 46.5t-35.5 114.5zM100 795l11 176q217 63 360 63q100 0 138 -33.5t38 -105.5q0 -31 -14.5 -149.5t-37 -281.5t-28.5 -214q74 2 148 35l69 -172q-78 -70 -189.5 -110 t-193.5 -40q-119 0 -167 49t-48 142q0 18 4 55l74 559zM498 1298q8 74 61 123t121 49t108.5 -45t32.5 -114q-4 -72 -57 -123t-125 -51q-66 0 -105.5 46.5t-35.5 114.5z" />
<glyph unicode="&#xf0;" horiz-adv-x="1255" d="M82 395q0 262 154.5 415t384.5 153q135 0 206 -43q-18 150 -108 260q-31 -18 -92.5 -57.5t-91.5 -57.5q-20 29 -58 90l164 105q-63 53 -145 102l108 188q162 -63 273 -141l81 51q66 41 101 64l61 -90l-153 -99q233 -221 233 -600q0 -76 -8 -146.5t-29.5 -161.5 t-67.5 -166t-113 -140.5t-174.5 -102t-244.5 -36.5q-244 0 -362.5 114.5t-118.5 298.5zM461 401q0 -168 137 -168q201 0 223 431q-82 53 -157 53q-106 0 -154.5 -96.5t-48.5 -219.5z" />
<glyph unicode="&#xf1;" horiz-adv-x="1427" d="M76 793l12 176q203 63 348 63q102 0 136 -34.5t34 -108.5q0 -49 -12 -123h10q94 147 209 207.5t211 60.5q113 0 173 -68.5t60 -191.5q0 -4 -59 -524q53 2 133 35q2 -2 35 -86t35 -86q-86 -72 -196.5 -110t-190.5 -38q-115 0 -154 43t-39 137q0 23 4 68q8 74 22.5 181.5 t23 177t8.5 92.5q0 90 -76 90q-63 0 -125 -78t-103 -221l-59 -455h-364q66 530 90 764zM303 1251q98 215 254 215q66 0 196 -36.5t185 -36.5l121 82l86 -78q-96 -223 -250 -223q-80 0 -212 39.5t-171 39.5l-117 -79z" />
<glyph unicode="&#xf2;" horiz-adv-x="1239" d="M82 424q0 264 156.5 436t447.5 172q246 0 369 -123t123 -329q0 -258 -158 -429t-451 -171q-246 0 -366.5 119.5t-120.5 324.5zM377 1450l188 184l301 -393l-116 -117zM461 408q0 -172 135 -172q102 0 150.5 103t48.5 251q0 178 -131 178q-106 0 -154.5 -110.5 t-48.5 -249.5z" />
<glyph unicode="&#xf3;" horiz-adv-x="1239" d="M82 424q0 264 156.5 436t447.5 172q246 0 369 -123t123 -329q0 -258 -158 -429t-451 -171q-246 0 -366.5 119.5t-120.5 324.5zM461 408q0 -172 135 -172q102 0 150.5 103t48.5 251q0 178 -131 178q-106 0 -154.5 -110.5t-48.5 -249.5zM547 1231l350 395l166 -186 l-406 -326z" />
<glyph unicode="&#xf4;" horiz-adv-x="1239" d="M82 424q0 264 156.5 436t447.5 172q246 0 369 -123t123 -329q0 -258 -158 -429t-451 -171q-246 0 -366.5 119.5t-120.5 324.5zM287 1202l348 318h229l277 -318l-101 -106l-317 209l-363 -205zM461 408q0 -172 135 -172q102 0 150.5 103t48.5 251q0 178 -131 178 q-106 0 -154.5 -110.5t-48.5 -249.5z" />
<glyph unicode="&#xf5;" horiz-adv-x="1239" d="M82 424q0 264 156.5 436t447.5 172q246 0 369 -123t123 -329q0 -258 -158 -429t-451 -171q-246 0 -366.5 119.5t-120.5 324.5zM309 1229q98 215 254 215q66 0 196 -37t185 -37l121 82l86 -78q-96 -223 -250 -223q-80 0 -212 40t-171 40l-117 -80zM461 408 q0 -172 135 -172q102 0 150.5 103t48.5 251q0 178 -131 178q-106 0 -154.5 -110.5t-48.5 -249.5z" />
<glyph unicode="&#xf6;" horiz-adv-x="1239" d="M82 424q0 264 156.5 436t447.5 172q246 0 369 -123t123 -329q0 -258 -158 -429t-451 -171q-246 0 -366.5 119.5t-120.5 324.5zM352 1298q8 72 61.5 122t121.5 50q66 0 107.5 -45t35.5 -114q-6 -72 -60.5 -123t-121.5 -51q-66 0 -108 46.5t-36 114.5zM461 408 q0 -172 135 -172q102 0 150.5 103t48.5 251q0 178 -131 178q-106 0 -154.5 -110.5t-48.5 -249.5zM780 1298q8 74 61.5 123t121 49t108.5 -45t33 -114q-4 -72 -57.5 -123t-124.5 -51q-66 0 -106 46.5t-36 114.5z" />
<glyph unicode="&#xf7;" d="M199 520l24 213h877l-25 -213h-876zM446 252q8 68 59.5 115t117.5 47q63 0 103 -45t34 -111q-8 -68 -59.5 -117t-115 -49t-104.5 47t-35 113zM538.5 999.5q6.5 65.5 58.5 113.5t118 48q63 0 103 -46t32 -109q-6 -68 -57.5 -117t-116.5 -49q-63 0 -103.5 47t-34 112.5z " />
<glyph unicode="&#xf8;" horiz-adv-x="1249" d="M29 -14l145 139q-92 115 -92 278q0 281 150.5 454t451.5 173q205 0 332 -94l94 94h123l-154 -149q96 -117 97 -314q0 -256 -160 -420.5t-449 -164.5q-209 0 -331 88l-89 -84h-118zM461 434q0 -14 4 -43q102 104 303 318q-31 59 -104 59q-70 0 -118 -57.5t-66.5 -129 t-18.5 -147.5zM481 295q33 -61 113 -62q70 0 117 55.5t63.5 126t16.5 150.5q0 31 -5 45z" />
<glyph unicode="&#xf9;" horiz-adv-x="1413" d="M80 795l16 174q215 63 365 63q90 0 129 -40t39 -118q0 -29 -30 -252t-30 -270q0 -90 74 -90q57 0 116.5 74t100.5 227l60 445h354l-100 -760q51 2 141 35l69 -170q-80 -70 -183 -108t-187 -38q-104 0 -146.5 43t-42.5 127q0 12 1 37t1 35h-10q-160 -233 -393 -234 q-242 0 -242 218q0 8 1 37.5t3 48.5q2 20 15.5 124.5t30 228.5t18.5 136zM432 1450l189 184l301 -393l-117 -117z" />
<glyph unicode="&#xfa;" horiz-adv-x="1413" d="M80 795l16 174q215 63 365 63q90 0 129 -40t39 -118q0 -29 -30 -252t-30 -270q0 -90 74 -90q57 0 116.5 74t100.5 227l60 445h354l-100 -760q51 2 141 35l69 -170q-80 -70 -183 -108t-187 -38q-104 0 -146.5 43t-42.5 127q0 12 1 37t1 35h-10q-160 -233 -393 -234 q-242 0 -242 218q0 8 1 37.5t3 48.5q2 20 15.5 124.5t30 228.5t18.5 136zM637 1231l350 395l166 -186l-405 -326z" />
<glyph unicode="&#xfb;" horiz-adv-x="1413" d="M80 795l16 174q215 63 365 63q90 0 129 -40t39 -118q0 -29 -30 -252t-30 -270q0 -90 74 -90q57 0 116.5 74t100.5 227l60 445h354l-100 -760q51 2 141 35l69 -170q-80 -70 -183 -108t-187 -38q-104 0 -146.5 43t-42.5 127q0 12 1 37t1 35h-10q-160 -233 -393 -234 q-242 0 -242 218q0 8 1 37.5t3 48.5q2 20 15.5 124.5t30 228.5t18.5 136zM356 1202l349 318h229l276 -318l-100 -106l-317 209l-363 -205z" />
<glyph unicode="&#xfc;" horiz-adv-x="1413" d="M80 795l16 174q215 63 365 63q90 0 129 -40t39 -118q0 -29 -30 -252t-30 -270q0 -90 74 -90q57 0 116.5 74t100.5 227l60 445h354l-100 -760q51 2 141 35l69 -170q-80 -70 -183 -108t-187 -38q-104 0 -146.5 43t-42.5 127q0 12 1 37t1 35h-10q-160 -233 -393 -234 q-242 0 -242 218q0 8 1 37.5t3 48.5q2 20 15.5 124.5t30 228.5t18.5 136zM416 1298q8 72 61 122t121 50q66 0 108 -45t35 -114q-6 -72 -60 -123t-122 -51q-66 0 -107.5 46.5t-35.5 114.5zM844 1298q8 74 61 123t121 49t109 -45t32 -114q-4 -72 -57 -123t-125 -51 q-66 0 -105.5 46.5t-35.5 114.5z" />
<glyph unicode="&#xfd;" horiz-adv-x="1282" d="M-223 -264q0 27 2 41l135 80q86 -82 203 -82q197 0 346 137q-137 565 -219 825l-148 -28l-51 161q188 156 352 156q121 0 148 -98q68 -266 162 -729q74 104 118.5 269t44.5 296q-41 -4 -122 -16l-35 163q180 127 338 127q172 0 172 -229q0 -199 -104.5 -427 t-267.5 -415.5t-381 -312.5t-427 -125q-41 0 -82 9t-85 29.5t-71.5 64t-27.5 104.5zM571 1231l351 395l165 -186l-405 -326z" />
<glyph unicode="&#xfe;" horiz-adv-x="1290" d="M-66 -432l31 242h115q12 111 50 427t69.5 587.5t46.5 402.5l-166 30l12 175q184 68 357 67q86 0 122.5 -39t36.5 -114q0 -55 -63 -580h10q172 260 387 260q131 0 205 -92t74 -275q0 -299 -143.5 -492.5t-407.5 -193.5q-88 0 -197 33l-24 -196h149l-29 -242h-635zM500 260 q68 -23 137 -22q78 0 131 57t72.5 130t19.5 155q0 168 -100 168q-145 0 -236 -312z" />
<glyph unicode="&#xff;" horiz-adv-x="1282" d="M-223 -264q0 27 2 41l135 80q86 -82 203 -82q197 0 346 137q-137 565 -219 825l-148 -28l-51 161q188 156 352 156q121 0 148 -98q68 -266 162 -729q74 104 118.5 269t44.5 296q-41 -4 -122 -16l-35 163q180 127 338 127q172 0 172 -229q0 -199 -104.5 -427 t-267.5 -415.5t-381 -312.5t-427 -125q-41 0 -82 9t-85 29.5t-71.5 64t-27.5 104.5zM354 1298q8 72 61.5 122t121.5 50q66 0 107.5 -45t35.5 -114q-6 -72 -60.5 -123t-121.5 -51q-66 0 -108 46.5t-36 114.5zM782 1298q8 74 61.5 123t121 49t108.5 -45t33 -114 q-4 -72 -57.5 -123t-124.5 -51q-66 0 -106 46.5t-36 114.5z" />
<glyph unicode="&#x152;" horiz-adv-x="1923" d="M115 592q0 240 84 429t262 305t428 116q121 0 237 -31h836q-8 -80 -29 -240l-30 -239h-263l29 233h-381l-39 -323q49 0 151.5 5t153.5 7q-6 -39 -14 -127t-14 -127q-35 0 -140.5 4t-164.5 4l-43 -360h403q2 18 31 250h262q-10 -84 -30.5 -250t-28.5 -248h-895 q-102 -20 -197 -20q-307 0 -457.5 163.5t-150.5 448.5zM510 563q0 -141 59.5 -229t182.5 -88q29 0 41 2q49 381 112 917q-20 4 -47 4q-119 -2 -201 -96t-114.5 -224t-32.5 -286z" />
<glyph unicode="&#x153;" horiz-adv-x="1824" d="M82 424q0 264 155.5 435t446.5 171q244 0 350 -137q158 141 389 141q156 0 255.5 -74.5t99.5 -218.5q0 -328 -607 -356q0 -4 -1 -16.5t-1 -18.5q0 -59 35 -91t129 -32q121 0 303 60l64 -205q-188 -102 -459 -102q-217 0 -317 122q-143 -123 -355 -122 q-248 0 -367.5 118.5t-119.5 325.5zM461 408q0 -172 135 -172q102 0 150.5 103t48.5 251q0 178 -131 178q-106 0 -154.5 -110.5t-48.5 -249.5zM1180 539q274 12 274 159q0 82 -82 82q-176 1 -192 -241z" />
<glyph unicode="&#x178;" horiz-adv-x="1456" d="M119 1163l31 252h595l-30 -252h-113l164 -393h8l258 393h-114l30 252h602l-32 -252h-99l-479 -651l-31 -262h150l-29 -250h-717l29 250h154l30 260l-311 653h-96zM514 1667q6 68 57.5 114t115 46t102 -44t32.5 -110q-8 -68 -57 -114t-115 -46q-63 0 -102 44t-33 110z M922 1667q6 68 56 114t116 46q63 0 102 -44t31 -110q-6 -68 -56.5 -114t-115.5 -46q-63 0 -102 44t-31 110z" />
<glyph unicode="&#x2c6;" horiz-adv-x="1202" d="M266 1202l348 318h230l276 -318l-100 -106l-318 209l-362 -205z" />
<glyph unicode="&#x2dc;" horiz-adv-x="1202" d="M297 1231q98 215 254 215q66 0 196 -37t185 -37l121 82l86 -78q-96 -223 -250 -223q-80 0 -212 40t-171 40l-117 -80z" />
<glyph unicode="&#x2000;" horiz-adv-x="1019" />
<glyph unicode="&#x2001;" horiz-adv-x="2039" />
<glyph unicode="&#x2002;" horiz-adv-x="1019" />
<glyph unicode="&#x2003;" horiz-adv-x="2039" />
<glyph unicode="&#x2004;" horiz-adv-x="679" />
<glyph unicode="&#x2005;" horiz-adv-x="509" />
<glyph unicode="&#x2006;" horiz-adv-x="339" />
<glyph unicode="&#x2007;" horiz-adv-x="339" />
<glyph unicode="&#x2008;" horiz-adv-x="253" />
<glyph unicode="&#x2009;" horiz-adv-x="407" />
<glyph unicode="&#x200a;" horiz-adv-x="112" />
<glyph unicode="&#x2010;" horiz-adv-x="825" d="M127 430l33 256h571l-33 -256h-571z" />
<glyph unicode="&#x2011;" horiz-adv-x="825" d="M127 430l33 256h571l-33 -256h-571z" />
<glyph unicode="&#x2012;" horiz-adv-x="825" d="M127 430l33 256h571l-33 -256h-571z" />
<glyph unicode="&#x2013;" horiz-adv-x="993" d="M90 418l27 221h811l-27 -221h-811z" />
<glyph unicode="&#x2014;" horiz-adv-x="1986" d="M123 418l27 221h1734l-26 -221h-1735z" />
<glyph unicode="&#x2018;" horiz-adv-x="575" d="M178 1040q0 137 104.5 272.5t247.5 203.5l76 -125q-125 -90 -153 -203q104 -29 104 -141q0 -80 -58.5 -138.5t-146.5 -58.5t-131 54t-43 136z" />
<glyph unicode="&#x2019;" horiz-adv-x="575" d="M168 973q125 94 154 203q-104 29 -105 139q0 82 57.5 141.5t149.5 59.5q86 0 128 -54.5t42 -136.5q0 -139 -102.5 -273t-247.5 -202z" />
<glyph unicode="&#x201a;" horiz-adv-x="608" d="M27 -170q127 94 151 197q-49 8 -76.5 46t-25.5 91q2 82 58 141.5t145 59.5q86 0 130 -58.5t42 -144.5q-2 -131 -110 -261t-239 -194z" />
<glyph unicode="&#x201c;" horiz-adv-x="966" d="M176 1040q0 137 104.5 272.5t247.5 203.5l76 -125q-125 -90 -153 -203q104 -29 104 -141q0 -80 -58.5 -138.5t-148.5 -58.5q-86 0 -129 54t-43 136zM588 1040q0 137 103.5 271.5t246.5 204.5l76 -125q-125 -90 -154 -203q102 -25 103 -141q0 -82 -56.5 -139.5 t-146.5 -57.5q-86 0 -129 54t-43 136z" />
<glyph unicode="&#x201d;" horiz-adv-x="966" d="M162 973q127 96 151 203q-102 29 -102 139q0 82 57.5 141.5t147.5 59.5q86 0 129 -54.5t43 -136.5q0 -139 -102.5 -273t-247.5 -202zM569 973q127 96 152 203q-102 29 -103 139q0 82 57.5 141.5t147.5 59.5q86 0 129 -54.5t43 -136.5q0 -137 -103.5 -271t-246.5 -204z " />
<glyph unicode="&#x201e;" horiz-adv-x="1046" d="M49 -170q68 49 103.5 93t50.5 104q-49 10 -77 47t-26 90q0 82 56.5 141.5t146.5 59.5q86 0 130 -58.5t42 -144.5q-2 -131 -109.5 -261t-238.5 -194zM489 -170q127 92 152 197q-47 8 -74.5 46t-27.5 91q2 82 59 141.5t145 59.5q84 0 128 -58.5t44 -144.5 q-2 -131 -109.5 -261t-238.5 -194z" />
<glyph unicode="&#x2022;" horiz-adv-x="913" d="M164 543q0 125 90 215t215 90q121 0 206 -86t85 -207q0 -125 -90 -216t-215 -91q-121 0 -206 86t-85 209z" />
<glyph unicode="&#x2026;" horiz-adv-x="1699" d="M82 150q0 90 64.5 151t148.5 61q70 0 116 -49t46 -123q0 -88 -63.5 -151.5t-145.5 -63.5q-72 0 -119 50.5t-47 124.5zM578 150q0 90 65.5 151t147.5 61q70 0 116.5 -50t46.5 -124q0 -88 -64.5 -150.5t-146.5 -62.5q-72 0 -118.5 50.5t-46.5 124.5zM1087 150q0 90 65 151 t148 61q70 0 116 -49t46 -123q0 -88 -63.5 -151.5t-145.5 -63.5q-72 0 -119 50.5t-47 124.5z" />
<glyph unicode="&#x202f;" horiz-adv-x="407" />
<glyph unicode="&#x2039;" horiz-adv-x="739" d="M92 379l10 78l412 399l137 -104l-254 -334l168 -328l-166 -113z" />
<glyph unicode="&#x203a;" horiz-adv-x="739" d="M63 92l246 328l-168 332l162 104l313 -399l-10 -78l-403 -402z" />
<glyph unicode="&#x205f;" horiz-adv-x="509" />
<glyph unicode="&#x20ac;" d="M63 526q2 18 6.5 57.5t8.5 57.5h862l-14 -115h-387v-24q0 -119 64.5 -174.5t213.5 -55.5q29 0 94 9q6 37 15 106h241l-45 -354q-182 -53 -379 -53q-303 0 -439 147t-138 399h-103zM88 725q8 76 14 121h103q41 250 208 399.5t484 149.5q193 0 358 -56q-18 -135 -45 -360 h-241l14 123q-33 10 -98 10q-248 0 -312 -266h394l-17 -121h-862z" />
<glyph unicode="&#x2122;" horiz-adv-x="1906" d="M111 1147v268h720v-268h-149v127h-102v-461h88v-139h-398v139h88v461h-100v-127h-147zM866 674v139h82v461h-82v141h355l90 -201l75 -170h7l69 173q8 16 45 101t43 97h357v-141h-72v-461h72v-139h-348v139h63v324h-4l-64 -148l-73 -174h-178l-84 176l-64 144h-2v-322h70 v-139h-357z" />
<glyph unicode="&#xe000;" horiz-adv-x="1030" d="M0 1030h1030v-1030h-1030v1030z" />
<glyph unicode="&#xfb01;" horiz-adv-x="1472" d="M-227 -430l59 240q86 -14 152 -15q88 0 130 61.5t66 247.5q25 209 68 619h-180l24 203l180 43l19 129q16 102 46 172.5t86 133t155.5 94.5t242.5 32q190 0 375 -57l-72 -254q-152 31 -250 30q-74 0 -118.5 -16t-68 -58t-32 -77t-16.5 -109q-2 -23 -4 -33h309 q119 0 346 39q29 -14 35 -16q-16 -137 -35.5 -298t-32 -257t-22.5 -176q74 2 147 35l72 -170q-80 -70 -192.5 -108t-194.5 -38q-117 0 -165 47t-48 140q0 8 2 22t4 37t4 41q2 20 30 234t30 235h-316q-18 -188 -59 -547q-14 -133 -31.5 -222t-52.5 -178t-87 -139.5t-135 -82 t-198 -31.5q-131 0 -272 47z" />
<glyph unicode="&#xfb02;" horiz-adv-x="1474" d="M-227 -430l59 237q86 -14 150 -14q80 0 126 53.5t64 196.5q25 182 76 680h-172l24 203l172 43q8 66 14.5 104.5t24 103t39 103.5t62.5 86t93 73.5t131 45t177 18.5q115 0 227 -26l258 47l72 -43q-16 -139 -67.5 -620.5t-65.5 -612.5q74 2 147 35l72 -174 q-88 -74 -190.5 -109t-186.5 -35q-221 0 -221 185q0 25 6 77l117 981q-92 10 -115 11q-203 0 -221 -168q-2 -18 -10 -95h219l-25 -233h-221q-18 -188 -59 -547q-14 -133 -31.5 -222t-52.5 -178t-87 -139.5t-135 -82t-198 -31.5q-129 0 -272 47z" />
<glyph unicode="&#xfb03;" horiz-adv-x="2131" d="M-223 -444l57 235q98 -16 152 -16q80 0 126 51t64 197q4 35 42 364.5t38 335.5h-180l24 203q31 8 92.5 22.5t92.5 22.5l12 98q53 418 547 418q135 0 286 -43q131 96 396 96q174 -8 344 -57q-25 -86 -70 -258q-111 31 -196 30q-76 0 -126.5 -12t-80 -30.5t-47 -58.5 t-24.5 -76t-15 -103q-2 -12 -2 -19h288q164 0 353 37q4 -2 16 -7t19 -9l-91 -729q74 2 148 35l72 -170q-78 -70 -191 -108t-197 -38q-121 0 -167 50.5t-46 140.5q0 55 9.5 143t30 239.5t24.5 182.5h-293q-8 -80 -18.5 -200t-16.5 -190.5t-17 -171t-23.5 -158.5t-34 -134 t-48 -119t-65.5 -91t-88 -71.5t-113.5 -40t-142.5 -16.5q-111 0 -209 35l57 239q49 -8 90 -8q88 0 128 49.5t59 171.5q25 154 80 705h-308q-6 -96 -61 -561q-14 -133 -31.5 -222.5t-52.5 -178.5t-86 -139t-135 -82t-199 -32q-133 1 -272 48zM641 956h305q25 207 37 248 q-78 16 -137 17q-185 -1 -205 -265z" />
<glyph unicode="&#xfb04;" horiz-adv-x="2146" d="M-223 -444l57 231q86 -14 150 -14q80 0 126 50t66 200q6 37 41 348t39 352h-180q20 182 24 203l185 45q12 88 29.5 155.5t56.5 139t94 118t146 76t210 29.5q147 0 309 -45q131 98 355 98q109 0 229 -22l260 47l72 -43q-10 -90 -64.5 -599t-74.5 -677q72 2 149 35l70 -170 q-88 -76 -190.5 -111t-186.5 -35q-121 0 -171 49.5t-50 143.5q0 23 25.5 234.5t59.5 491t44 367.5q-74 8 -111 9q-33 0 -60.5 -5.5t-48 -10.5t-38 -20.5t-28.5 -23.5t-20.5 -32.5t-14.5 -34t-10 -42t-7 -42t-5 -47t-5 -48.5h221q-2 -39 -10 -116l-13 -117h-225 q-10 -92 -20.5 -221t-16.5 -209t-18.5 -184.5t-28.5 -168t-43 -138t-64.5 -117.5t-89 -82t-123 -55.5t-161.5 -16.5q-100 0 -201 33l57 237q55 -6 89 -6q82 0 119.5 37t56.5 156q12 76 28.5 218t32.5 306t23 211h-308q-12 -100 -24 -235.5t-20.5 -218.5t-21.5 -188.5 t-29.5 -170t-43 -138t-63.5 -115.5t-87.5 -80t-119 -53.5t-156.5 -15.5q-139 1 -272 48zM641 956h305q16 170 37 248q-88 18 -141 19q-86 0 -135.5 -58.5t-65.5 -208.5z" />
</font>
</defs>
</svg>
